<svg height="512" viewBox="0 0 64 64" width="512" xmlns="http://www.w3.org/2000/svg" xmlns:xlink="http://www.w3.org/1999/xlink"><linearGradient id="linear-gradient" gradientUnits="userSpaceOnUse" x1="26" x2="28" y1="4.5" y2="4.5"><stop offset="0" stop-color="#e9a254"/><stop offset="1" stop-color="#f4bb79"/></linearGradient><linearGradient id="linear-gradient-2" x1="36" x2="38" xlink:href="#linear-gradient"/><linearGradient id="linear-gradient-3" x1="22" x2="42" xlink:href="#linear-gradient" y1="16" y2="16"/><linearGradient id="linear-gradient-4" x1="17" x2="47" xlink:href="#linear-gradient" y1="39.5" y2="39.5"/><linearGradient id="linear-gradient-5" gradientUnits="userSpaceOnUse" x1="17.14" x2="46.86" y1="43" y2="43"><stop offset="0" stop-color="#474f72"/><stop offset="1" stop-color="#878c9f"/></linearGradient><linearGradient id="linear-gradient-6" x1="19.9" x2="44.1" xlink:href="#linear-gradient-5" y1="53" y2="53"/><linearGradient id="linear-gradient-7" gradientUnits="userSpaceOnUse" x2="32" y1="28" y2="28"><stop offset="0" stop-color="#d4d8e1"/><stop offset="1" stop-color="#f3f4f5"/></linearGradient><linearGradient id="linear-gradient-8" gradientTransform="matrix(-1 0 0 1 64 0)" xlink:href="#linear-gradient-7"/><g id="Bee"><path d="m27 9a1 1 0 0 1 -1-1v-7a1 1 0 0 1 2 0v7a1 1 0 0 1 -1 1z" fill="url(#linear-gradient)"/><path d="m37 9a1 1 0 0 1 -1-1v-7a1 1 0 0 1 2 0v7a1 1 0 0 1 -1 1z" fill="url(#linear-gradient-2)"/><circle cx="32" cy="16" fill="url(#linear-gradient-3)" r="10"/><path d="m47 37c0 6.56-2.12 14.06-7 18.57a73.25 73.25 0 0 0 -8 8.43 73.5 73.5 0 0 0 -8-8.43c-4.83-4.49-7-12-7-18.57 0-12.15 6.72-22 15-22s15 9.85 15 22z" fill="url(#linear-gradient-4)"/><path d="m46.86 40a29.94 29.94 0 0 1 -1.18 6h-27.36a29.94 29.94 0 0 1 -1.18-6z" fill="url(#linear-gradient-5)"/><path d="m44.1 50a19.43 19.43 0 0 1 -4.52 6h-15.16a19.36 19.36 0 0 1 -4.52-6z" fill="url(#linear-gradient-6)"/><ellipse cx="18.16" cy="36.03" fill="#c7cdd8" rx="16" ry="10" transform="matrix(.865 -.502 .502 .865 -15.62 13.97)"/><ellipse cx="45.84" cy="36.03" fill="#c7cdd8" rx="10" ry="16" transform="matrix(.502 -.865 .865 .502 -8.32 57.61)"/><ellipse cx="16" cy="28" fill="url(#linear-gradient-7)" rx="16" ry="10"/><ellipse cx="48" cy="28" fill="url(#linear-gradient-8)" rx="16" ry="10"/></g></svg>