<?xml version="1.0" encoding="UTF-8" standalone="no"?>
<!-- Created with Inkscape (http://www.inkscape.org/) -->

<svg
   version="1.1"
   id="svg447"
   xml:space="preserve"
   width="682.66669"
   height="682.66669"
   viewBox="0 0 682.66669 682.66669"
   xmlns="http://www.w3.org/2000/svg"
   xmlns:svg="http://www.w3.org/2000/svg"><defs
     id="defs451"><clipPath
       clipPathUnits="userSpaceOnUse"
       id="clipPath461"><path
         d="M 0,512 H 512 V 0 H 0 Z"
         id="path459" /></clipPath></defs><g
     id="g453"
     transform="matrix(1.3333333,0,0,-1.3333333,0,682.66667)"><g
       id="g455"><g
         id="g457"
         clip-path="url(#clipPath461)"><g
           id="g463"
           transform="translate(28.3687,375.624)"><path
             d="m 0,0 c -8.355,5.567 -13.368,14.934 -13.368,24.967 v 0.025 c 0,17.737 14.38,32.116 32.118,32.116 h 417.763 c 17.737,0 32.117,-14.379 32.117,-32.116 V 24.976 24.967 C 468.63,14.934 463.618,5.567 455.263,0 414.494,-27.185 291.648,-109.076 245.457,-139.876 c -10.796,-7.198 -24.855,-7.198 -35.651,0 C 163.614,-109.076 40.769,-27.185 0,0 Z"
             style="fill:none;stroke:#000000;stroke-width:30;stroke-linecap:round;stroke-linejoin:round;stroke-miterlimit:10;stroke-dasharray:none;stroke-opacity:1"
             id="path465" /></g><g
           id="g467"
           transform="translate(15.001,400.5996)"><path
             d="m 0,0 v -289.199 c 0,-8.523 3.382,-16.693 9.415,-22.718 6.025,-6.033 14.195,-9.415 22.718,-9.415 h 417.732 c 8.523,0 16.693,3.382 22.718,9.415 6.033,6.025 9.415,14.195 9.415,22.718 V 0"
             style="fill:none;stroke:#000000;stroke-width:30;stroke-linecap:round;stroke-linejoin:round;stroke-miterlimit:10;stroke-dasharray:none;stroke-opacity:1"
             id="path469" /></g></g></g></g></svg>
