<svg width="1725" height="822" viewBox="0 0 1725 822" fill="none" xmlns="http://www.w3.org/2000/svg">
<path fill-rule="evenodd" clip-rule="evenodd" d="M1725 786.622H1717.67C1720.95 798.342 1723.4 809.96 1725 821.424V821.773H1723.39C1721.78 810.191 1719.3 798.461 1715.98 786.622H1541.3C1543.92 798.424 1545.86 810.149 1547.12 821.773H1545.47C1544.2 810.149 1542.26 798.424 1539.62 786.622H1364.75C1366.72 798.43 1368.18 810.145 1369.12 821.773H1367.47C1366.52 810.145 1365.06 798.43 1363.09 786.622H1187.93C1189.32 798.507 1190.36 810.221 1191.03 821.773H1189.37C1188.7 810.221 1187.67 798.507 1186.27 786.622H1011.5C1012.2 798.322 1012.73 810.032 1013.07 821.773H1011.42C1011.07 810.042 1010.54 798.312 1009.86 786.622H835.115V821.773H833.468V786.622H658.727C658.038 798.312 657.509 810.042 657.165 821.773H655.518C655.856 810.032 656.384 798.322 657.079 786.622H482.311C480.913 798.507 479.879 810.221 479.208 821.773H477.557C478.227 810.221 479.259 798.507 480.654 786.622H305.496C303.521 798.43 302.06 810.145 301.114 821.773H299.462C300.404 810.145 301.862 798.43 303.832 786.622H128.961C126.327 798.424 124.375 810.149 123.114 821.773H121.458C122.715 810.149 124.658 798.424 127.283 786.622H0V785.249H127.592C130.86 770.838 135.142 756.315 140.436 741.695H0V740.316H140.936C146.223 725.88 152.495 711.347 159.744 696.762H0V695.383H160.43C161.389 693.472 162.366 691.55 163.359 689.634C169.789 677.232 176.932 664.676 184.882 651.829H24.6667C15.6643 663.431 7.47494 674.818 0 686.108V683.279C6.9387 672.912 14.4816 662.458 22.7035 651.829H0V650.451H23.77C34.1422 637.116 45.5851 623.49 58.245 609.382C58.9901 608.557 59.737 607.726 60.4893 606.891H0V605.518H61.7357C74.4461 591.522 88.3253 577.091 103.638 561.963H0V560.585H105.031C114.683 551.079 124.9 541.291 135.753 531.154C140.824 526.419 145.92 521.709 151.034 517.03H16.942C11.2768 521.346 5.62787 525.686 0 530.052V528.176C4.81779 524.441 9.65423 520.725 14.4991 517.03H0V515.652H16.3028C35.7226 500.864 55.326 486.363 74.942 472.095H0V470.721H76.8324C97.1375 455.968 117.45 441.463 137.555 427.163H24.3128C16.2354 432.088 8.12614 437.039 0 442.015V440.31C7.19207 435.908 14.3661 431.526 21.5197 427.163H0V425.788H23.7742C29.8312 422.095 35.8731 418.415 41.8928 414.75C59.3885 404.097 76.7355 393.533 93.8521 383.029C94.2842 382.764 94.7193 382.497 95.152 382.231H0V380.856H97.3909C119.875 367.042 143.479 352.41 167.293 337.297H75.0516C49.5621 351.467 24.2587 365.224 0 378.287V376.652C23.327 364.086 47.6043 350.886 72.0772 337.297H0V335.922H74.5514C100.081 321.725 125.795 307.115 150.839 292.366H68.6383C54.3131 299.884 39.3078 307.617 23.5262 315.611C15.8809 319.485 8.06415 323.415 0 327.441V325.839C7.76323 321.962 15.2953 318.173 22.6698 314.436C37.6311 306.853 51.8943 299.515 65.5406 292.366H0V290.987H68.1616C95.1797 276.803 119.765 263.381 142.541 250.39C144.272 249.401 145.993 248.417 147.707 247.433H74.5954C71.9593 248.796 69.3033 250.17 66.6299 251.543C45.8987 262.182 23.8013 273.118 0 284.515V282.926C23.4714 271.683 45.2878 260.88 65.765 250.369C67.6753 249.391 69.5784 248.412 71.4706 247.433H0V246.762V245.184C30.885 230.578 59.4053 216.28 85.1457 202.5H20.322C13.7161 205.755 6.9411 209.034 0 212.345V210.761C5.80963 207.989 11.5007 205.232 17.075 202.5H0V201.122H19.8706C26.4831 197.863 32.9253 194.634 39.1863 191.437C61.525 180.023 82.2611 168.693 101.172 157.567H43.1332C29.6061 164.952 15.2063 172.429 0 179.963V178.363C14.0868 171.373 27.4791 164.43 40.1173 157.567H0V156.189H42.6409C53.6709 150.162 64.1178 144.192 73.9393 138.309C88.2651 129.72 101.549 121.141 113.69 112.635H60.9731C47.428 121.511 32.5371 130.473 16.428 139.437C11.1227 142.388 5.64412 145.361 0 148.353V146.724C5.32153 143.895 10.4944 141.086 15.512 138.294C30.9331 129.71 45.2312 121.136 58.2985 112.635H5.68445C3.81451 113.778 1.91749 114.925 0 116.068V114.377C0.967168 113.793 1.93133 113.214 2.88646 112.635H0V111.261H5.14218C15.9417 104.646 25.9378 98.0809 35.063 91.603C46.2827 83.6344 56.4129 75.64 65.3606 67.702H16.4659C11.3418 72.0063 5.84755 76.3268 0 80.6519V78.8123C4.97848 75.1014 9.69516 71.3916 14.1374 67.702H0V66.3229H15.7786C21.4691 61.5211 26.6943 56.745 31.4345 52.0054C42.0216 41.4071 49.5405 31.4654 54.8776 22.7689H8.0816C5.79338 26.3251 3.12178 30.0868 0 34.0225V31.5064C2.32975 28.4775 4.38867 25.5572 6.20986 22.7689H0V21.3904H7.09397C12.5738 12.7502 15.7407 5.41701 17.5655 0H19.2766C17.4921 5.39132 14.3745 12.73 8.95428 21.3904H55.7094C60.8648 12.7502 63.8452 5.41701 65.5616 0H67.2655C65.5851 5.39132 62.6505 12.73 57.5474 21.3904H104.393C108.984 13.186 111.819 5.94473 113.564 0H115.261C113.543 5.93979 110.747 13.1811 106.209 21.3904H153.003C157.287 13.186 159.931 5.94473 161.557 0H163.249C161.645 5.93979 159.036 13.1761 154.799 21.3904H201.612C205.588 13.1811 208.042 5.94473 209.553 0H211.238C209.748 5.93979 207.324 13.1811 203.389 21.3904H250.221C253.889 13.1811 256.155 5.94473 257.547 0H259.227C257.851 5.93979 255.611 13.1811 251.978 21.3904H298.83C301.785 14.1906 304.041 7.01598 305.543 0H307.218C305.732 7.01598 303.498 14.1906 300.572 21.3904H347.481C350.146 14.2316 352.169 7.09256 353.54 0H355.21C353.852 7.09256 351.847 14.2316 349.206 21.3904H396.083C398.481 14.2316 400.302 7.08762 401.534 0H403.199C401.977 7.08762 400.172 14.2316 397.794 21.3904H444.917C447.44 13.2626 449.03 6.08308 450.017 0H451.675C450.696 6.08802 449.119 13.2676 446.617 21.3904H493.517C495.737 13.2473 497.133 6.06777 497.995 0H499.652C498.795 6.0732 497.409 13.2527 495.205 21.3904H542.105C544.02 13.232 545.219 6.06282 545.957 0H547.612C546.878 6.06777 545.686 13.2369 543.783 21.3904H590.683C592.287 13.2167 593.289 6.05195 593.904 0H595.557C594.944 6.05739 593.948 13.2216 592.352 21.3904H639.253C640.544 13.2063 641.343 6.04207 641.835 0H643.488C642.996 6.04701 642.197 13.2117 640.913 21.3904H687.814C688.785 13.2013 689.388 6.03713 689.757 0H691.404C691.042 6.04207 690.439 13.2063 689.474 21.3904H736.369C737.015 13.1959 737.421 6.03219 737.666 0H739.314C739.068 6.03713 738.668 13.1959 738.023 21.3904H784.82C785.177 13.186 785.404 6.02626 785.539 0H787.187C787.051 6.03219 786.83 13.186 786.473 21.3904H833.468V0H835.115V21.3904H882.109C881.753 13.186 881.531 6.03219 881.396 0H883.044C883.178 6.02626 883.406 13.186 883.763 21.3904H930.56C929.914 13.1959 929.515 6.03713 929.269 0H930.916C931.162 6.03219 931.568 13.1959 932.213 21.3904H979.115C978.144 13.2063 977.547 6.04207 977.179 0H978.826C979.195 6.03713 979.797 13.2013 980.768 21.3904H1027.67C1026.39 13.2117 1025.59 6.04701 1025.09 0H1026.75C1027.24 6.04207 1028.04 13.2063 1029.33 21.3904H1076.23C1074.63 13.2216 1073.64 6.05739 1073.03 0H1074.68C1075.29 6.05195 1076.29 13.2167 1077.9 21.3904H1124.8C1122.89 13.2369 1121.71 6.06777 1120.97 0H1122.62C1123.36 6.06282 1124.57 13.232 1126.48 21.3904H1173.38C1171.17 13.2527 1169.79 6.0732 1168.93 0H1170.59C1171.45 6.06777 1172.84 13.2473 1175.06 21.3904H1221.97C1219.46 13.2676 1217.89 6.08802 1216.91 0H1218.57C1219.56 6.08308 1221.14 13.2626 1223.67 21.3904H1270.79C1268.41 14.2316 1266.6 7.09256 1265.38 0H1267.05C1268.28 7.09256 1270.1 14.2316 1272.5 21.3904H1319.38C1316.73 14.2316 1314.73 7.09256 1313.37 0H1315.04C1316.41 7.08762 1318.44 14.2316 1321.1 21.3904H1368.01C1365.09 14.1906 1362.85 7.01598 1361.36 0H1363.04C1364.55 7.01598 1366.8 14.1906 1369.75 21.3904H1416.6C1412.97 13.1761 1410.73 5.93979 1409.36 0H1411.03C1412.43 5.94473 1414.69 13.186 1418.36 21.3904H1465.2C1461.26 13.1811 1458.83 5.93979 1457.35 0H1459.03C1460.54 5.94473 1463 13.1811 1466.97 21.3904H1513.78C1509.55 13.1761 1506.93 5.93979 1505.34 0H1507.03C1508.65 5.94473 1511.3 13.186 1515.58 21.3904H1562.37C1557.84 13.1811 1555.04 5.93979 1553.33 0H1555.02C1556.76 5.94473 1559.6 13.186 1564.19 21.3904H1611.03C1605.93 12.73 1603 5.39132 1601.32 0H1603.02C1604.74 5.41207 1607.72 12.7502 1612.87 21.3904H1659.63C1654.2 12.73 1651.09 5.39132 1649.31 0H1651.02C1652.84 5.41701 1656.01 12.7502 1661.49 21.3904H1708.22C1702.48 12.73 1699.18 5.39132 1697.3 0H1699.02C1700.95 5.41701 1704.3 12.7502 1710.11 21.3904H1725V22.7689H1711.04C1714.7 28.0728 1719.28 33.8382 1725 39.9366V42.1552C1718.37 35.2321 1713.19 28.7033 1709.15 22.7689H1662.37C1668.04 31.4605 1676.03 41.3972 1687.27 51.9896C1692.31 56.7351 1697.87 61.5162 1703.92 66.3229H1725V67.702H1705.67C1711.65 72.3858 1718.1 77.0848 1725 81.7943V83.5676C1717.19 78.2687 1709.93 72.9753 1703.26 67.702H1654.44C1663.98 75.6351 1674.78 83.6245 1686.75 91.5882C1696.49 98.0754 1707.15 104.646 1718.67 111.261H1725V112.635H1721.07C1722.37 113.373 1723.68 114.115 1725 114.854V116.509C1722.69 115.217 1720.41 113.926 1718.16 112.635H1665.68C1679.67 121.131 1694.98 129.705 1711.5 138.284C1715.89 140.564 1720.4 142.855 1725 145.16V146.765C1720.09 144.315 1715.3 141.876 1710.63 139.452C1693.36 130.479 1677.4 121.516 1662.88 112.635H1610.28C1623.35 121.136 1637.65 129.71 1653.07 138.294C1663.66 144.187 1674.91 150.157 1686.8 156.189H1725V157.567H1689.52C1700.81 163.256 1712.64 168.996 1725 174.776V176.355C1711.48 170.041 1698.58 163.768 1686.34 157.567H1628.47C1648.94 168.688 1671.4 180.013 1695.59 191.426C1702.38 194.624 1709.37 197.863 1716.55 201.122H1725V202.5H1719.57C1721.37 203.315 1723.18 204.13 1725 204.945V206.508C1722.01 205.165 1719.05 203.827 1716.12 202.5H1651.5C1674.12 213.595 1698.69 225.029 1725 236.687V238.245C1697.44 226.043 1671.77 214.087 1648.25 202.5H1583.44C1609.69 216.553 1638.83 231.147 1670.43 246.055H1725V247.433H1673.35C1675.42 248.407 1677.51 249.381 1679.6 250.355C1694.1 257.124 1709.2 264.007 1725 271.053V272.611C1708.91 265.441 1693.54 258.441 1678.79 251.559C1675.84 250.18 1672.91 248.807 1670 247.433H1597.11C1599 248.412 1600.9 249.391 1602.82 250.369C1628.15 263.376 1655.48 276.803 1685.5 290.987H1725V292.366H1688.41C1700.18 297.916 1712.37 303.579 1725 309.38V310.952C1711.17 304.604 1697.87 298.413 1685.06 292.366H1603.04C1616.69 299.515 1630.95 306.853 1645.91 314.436C1659.55 321.346 1673.72 328.434 1688.89 335.922H1725V337.297H1691.67C1702.25 342.51 1713.3 347.921 1725 353.604V355.195C1712.1 348.932 1699.98 342.998 1688.44 337.297H1596.5C1623.73 352.412 1650.7 367.042 1676.4 380.856H1725V382.231H1678.95C1679.44 382.49 1679.92 382.747 1680.4 383.005C1695.13 390.92 1710.01 398.862 1725 406.851V408.483C1709.71 400.334 1694.54 392.232 1679.51 384.16C1678.31 383.519 1677.11 382.875 1675.92 382.231H1573.43C1573.86 382.497 1574.3 382.764 1574.73 383.029C1591.84 393.531 1609.18 404.09 1626.67 414.741C1632.7 418.411 1638.74 422.092 1644.81 425.788H1725V427.163H1647.07C1670.52 441.46 1694.21 455.957 1717.91 470.721H1725V472.095H1720.12C1721.75 473.111 1723.37 474.126 1725 475.144V476.862C1722.46 475.268 1719.92 473.683 1717.37 472.095H1593.64C1613.25 486.362 1632.86 500.865 1652.28 515.652H1725V517.03H1654.08C1660.2 521.694 1666.29 526.388 1672.36 531.108C1685.41 541.26 1697.68 551.063 1709.28 560.585H1725V561.963H1710.95C1715.75 565.914 1720.43 569.815 1725 573.679V575.636C1719.69 571.136 1714.23 566.585 1708.61 561.963H1564.94C1580.26 577.091 1594.14 591.517 1606.85 605.518H1725V606.891H1608.1C1608.85 607.726 1609.6 608.557 1610.34 609.382C1623 623.49 1634.44 637.116 1644.81 650.451H1725V651.829H1645.88C1655.77 664.615 1664.68 677.145 1672.74 689.583C1673.99 691.514 1675.22 693.452 1676.43 695.383H1725V696.762H1677.28C1686.25 711.234 1694.06 725.788 1700.66 740.316H1725V741.695H1701.28C1707.84 756.279 1713.19 770.833 1717.29 785.249H1725V786.622ZM18.0903 66.3229H66.8989C72.2259 61.5265 77.1189 56.7558 81.5557 52.0202C91.4513 41.4585 98.5392 31.5781 103.613 22.7689H56.7259C51.3159 31.6957 43.6243 41.9506 32.7008 52.8864C28.2501 57.3349 23.3739 61.8191 18.0903 66.3229ZM7.92332 111.261H60.402C70.4643 104.651 79.7773 98.0962 88.288 91.6188C98.7661 83.6442 108.227 75.645 116.581 67.702H67.6187C58.372 75.9829 47.8414 84.3311 36.1325 92.6485C27.487 98.788 18.0656 105.004 7.92332 111.261ZM69.1414 66.3229H118.017C122.983 61.5369 127.542 56.7657 131.679 52.041C140.92 41.4688 147.539 31.5835 152.275 22.7689H105.438C100.295 31.8088 93.051 41.9862 82.8557 52.8661C78.6783 57.3246 74.1024 61.8136 69.1414 66.3229ZM63.0616 111.261H115.643C124.975 104.661 133.616 98.1061 141.513 91.6336C151.249 83.6551 160.04 75.6499 167.802 67.702H118.771C110.145 75.978 100.32 84.3212 89.4002 92.6332C81.324 98.7776 72.5292 104.999 63.0616 111.261ZM120.193 66.3229H169.135C173.736 61.5419 177.965 56.7815 181.801 52.0612C190.389 41.4792 196.537 31.5884 200.936 22.7689H154.08C149.28 31.8039 142.522 41.9708 133.011 52.8508C129.108 57.3092 124.829 61.8082 120.193 66.3229ZM45.6429 156.189H103.501C113.673 150.168 123.307 144.202 132.366 138.324C145.598 129.731 157.868 121.146 169.079 112.635H116.246C103.671 121.506 89.8522 130.463 74.9017 139.426C65.6856 144.945 55.9224 150.541 45.6429 156.189ZM118.185 111.261H170.881C179.486 104.666 187.454 98.1219 194.737 91.6544C203.731 83.6704 211.851 75.6549 219.021 67.702H169.924C161.918 75.9731 152.802 84.3108 142.669 92.6179C135.161 98.7677 126.986 104.989 118.185 111.261ZM171.245 66.3229H220.25C224.492 61.5473 228.389 56.7964 231.925 52.082C239.857 41.4945 245.535 31.5934 249.597 22.7689H202.72C198.264 31.7989 191.993 41.9605 183.167 52.8301C179.536 57.2984 175.557 61.8032 171.245 66.3229ZM23.1067 201.122H87.7072C93.7576 197.868 99.6491 194.644 105.381 191.452C125.867 180.034 144.883 168.698 162.224 157.567H104.026C84.5746 169.072 63.1699 180.797 40.0475 192.61C34.5382 195.423 28.8893 198.262 23.1067 201.122ZM106.343 156.189H164.36C173.673 150.173 182.495 144.218 190.79 138.345C202.929 129.746 214.182 121.152 224.466 112.635H171.522C159.92 121.5 147.17 130.453 133.378 139.405C124.863 144.936 115.841 150.536 106.343 156.189ZM173.312 111.261H226.118C233.996 104.676 241.29 98.1367 247.958 91.6801C256.211 83.6857 263.66 75.6657 270.237 67.702H221.08C213.694 75.9676 205.285 84.2955 195.938 92.5976C189 98.7519 181.446 104.984 173.312 111.261ZM222.299 66.3229H271.364C275.245 61.5577 278.811 56.8117 282.047 52.1027C288.657 42.4783 294.106 32.5979 298.258 22.7689H251.361C247.249 31.793 241.463 41.9452 233.323 52.8093C229.966 57.2836 226.287 61.7934 222.299 66.3229ZM1.49439 246.055H74.1235C102.854 231.147 129.348 216.553 153.207 202.5H88.1935C62.0535 216.553 33.0101 231.142 1.49439 246.055ZM90.7453 201.122H155.536C161.025 197.878 166.373 194.655 171.573 191.467C190.21 180.044 207.504 168.704 223.274 157.567H164.923C147.1 169.067 127.484 180.787 106.298 192.594C101.239 195.413 96.0518 198.257 90.7453 201.122ZM167.047 156.189H225.215C233.671 150.183 241.681 144.228 249.213 138.365C260.712 129.403 270.842 120.798 279.761 112.635H226.801C216.172 121.495 204.491 130.443 191.858 139.391C184.042 144.925 175.765 150.531 167.047 156.189ZM228.443 111.261H281.256C299.226 94.6571 312.155 79.9087 321.39 67.702H272.237C265.47 75.9627 257.768 84.2802 249.208 92.5769C242.841 98.742 235.908 104.979 228.443 111.261ZM273.355 66.3229H322.422C326.328 61.0858 329.54 56.3353 332.17 52.1279C338.272 42.3558 343.213 32.5411 346.961 22.7689H300.005C295.796 32.8287 290.24 42.9398 283.478 52.7836C280.396 57.2677 277.018 61.7884 273.355 66.3229ZM77.2417 246.055H150.095C175.957 231.142 199.8 216.547 221.268 202.5H156.063C132.302 216.547 105.899 231.137 77.2417 246.055ZM158.382 201.122H223.364C228.293 197.883 233.094 194.67 237.764 191.492C254.546 180.06 270.122 168.709 284.322 157.567H225.821C209.626 169.062 191.802 180.777 172.551 192.574C167.942 195.403 163.218 198.252 158.382 201.122ZM227.752 156.189H286.068C293.668 150.188 300.863 144.248 307.633 138.391C317.993 129.418 327.12 120.803 335.152 112.635H281.988C272.797 121.101 262.304 130.043 250.338 139.37C243.225 144.91 235.689 150.521 227.752 156.189ZM283.472 111.261H336.498C352.666 94.6571 364.302 79.9087 372.609 67.702H323.337C314.193 79.883 301.351 94.6374 283.472 111.261ZM324.361 66.3229H373.538C377.045 61.0962 379.93 56.3507 382.293 52.1536C387.791 42.3706 392.241 32.552 395.616 22.7689H348.692C344.895 32.757 339.865 42.7807 333.632 52.7634C331.107 56.8018 328.049 61.3373 324.361 66.3229ZM71.2539 290.987H153.17C176.019 277.499 198.282 263.904 219.313 250.411C220.862 249.416 222.405 248.422 223.94 247.433H150.61C148.248 248.791 145.869 250.159 143.473 251.523C121.304 264.17 97.421 277.223 71.2539 290.987ZM152.991 246.055H226.063C249.044 231.147 270.235 216.553 289.322 202.5H223.934C202.554 216.547 178.788 231.137 152.991 246.055ZM226.023 201.122H291.185C295.555 197.893 299.81 194.69 303.95 191.518C318.879 180.08 332.734 168.719 345.365 157.567H286.724C272.155 169.052 256.124 180.762 238.807 192.554C234.649 195.387 230.387 198.242 226.023 201.122ZM288.463 156.189H346.917C353.659 150.198 360.045 144.269 366.052 138.417C375.272 129.439 383.394 120.814 390.54 112.635H337.282C329.015 121.09 319.581 130.028 308.822 139.344C302.411 144.889 295.617 150.516 288.463 156.189ZM338.618 111.261H391.735C406.104 94.6571 416.445 79.9038 423.827 67.702H374.504C366.27 79.883 354.711 94.6374 338.618 111.261ZM375.426 66.3229H424.653C427.762 61.1065 430.322 56.3714 432.418 52.1793C437.793 41.4174 441.68 31.5578 444.485 22.7689H397.33C393.916 32.7467 389.392 42.7654 383.787 52.7377C381.511 56.7815 378.753 61.3264 375.426 66.3229ZM77.5227 335.922H169.458C191.797 321.724 214.296 307.115 236.206 292.366H153.696C128.711 307.105 103.034 321.719 77.5227 335.922ZM156.022 290.987H238.247C258.224 277.51 277.696 263.925 296.081 250.442C297.45 249.437 298.813 248.433 300.167 247.433H226.63C224.541 248.786 222.436 250.144 220.319 251.502C199.854 264.632 178.222 277.858 156.022 290.987ZM228.746 246.055H302.024C322 231.24 340.441 216.701 357.29 202.5H291.812C272.797 216.547 251.672 231.142 228.746 246.055ZM293.668 201.122H358.918C376.53 186.209 392.374 171.67 406.379 157.567H347.631C334.687 169.047 320.445 180.746 305.066 192.528C301.359 195.367 297.558 198.237 293.668 201.122ZM349.176 156.189H407.74C413.653 150.198 419.232 144.285 424.471 138.453C432.153 129.9 439.32 121.27 445.917 112.635H392.571C384.821 121.556 376.374 130.479 367.306 139.314C361.597 144.874 355.547 150.506 349.176 156.189ZM393.76 111.261H446.963C458.073 96.5842 467.526 81.9277 475.049 67.702H425.681C417.138 81.9277 406.393 96.5842 393.76 111.261ZM426.5 66.3229H475.771C478.249 61.5676 480.511 56.8532 482.544 52.21C487.263 41.4125 490.676 31.5425 493.136 22.7689H446.188C443.357 31.7016 439.415 41.7455 433.94 52.707C431.698 57.1912 429.215 61.7365 426.5 66.3229ZM26.5679 425.788H139.488C144.714 422.073 149.928 418.368 155.121 414.678C170.074 404.054 184.896 393.525 199.511 383.062C199.898 382.784 200.282 382.509 200.67 382.231H97.9314C96.8944 382.867 95.8604 383.503 94.8295 384.135C77.7117 394.643 60.3623 405.206 42.866 415.86C37.4493 419.159 32.0147 422.468 26.5679 425.788ZM100.168 380.856H202.589C221.86 367.043 242.095 352.409 262.505 337.297H170.015C146.246 352.397 122.659 367.032 100.168 380.856ZM172.177 335.922H264.36C283.506 321.725 302.791 307.115 321.571 292.366H238.83C216.969 307.105 194.501 321.718 172.177 335.922ZM240.866 290.987H323.32C340.425 277.525 357.099 263.95 372.845 250.478C374.032 249.462 375.215 248.443 376.39 247.433H302.65C300.836 248.776 299.009 250.124 297.169 251.471C279.251 264.611 260.308 277.848 240.866 290.987ZM304.502 246.055H377.981C395.101 231.24 410.907 216.701 425.346 202.5H359.608C342.815 216.701 324.423 231.24 304.502 246.055ZM361.23 201.122H426.74C441.833 186.209 455.414 171.665 467.415 157.567H408.518C394.571 171.67 378.785 186.209 361.23 201.122ZM409.873 156.189H468.581C473.637 150.209 478.407 144.31 482.887 138.493C489.481 129.93 495.635 121.28 501.297 112.635H447.871C441.096 121.542 433.716 130.453 425.791 139.277C420.792 144.838 415.483 150.48 409.873 156.189ZM448.912 111.261H502.193C511.713 96.5842 519.815 81.9277 526.26 67.702H476.85C469.373 81.9277 459.966 96.5842 448.912 111.261ZM477.566 66.3229H526.879C528.998 61.5779 530.932 56.8734 532.67 52.2411C536.728 41.4071 539.663 31.5321 541.777 22.7689H494.827C492.346 31.6754 488.89 41.6991 484.093 52.6813C482.127 57.1704 479.948 61.7267 477.566 66.3229ZM18.7475 515.652H152.537C168.702 500.883 185.046 486.377 201.41 472.095H77.4505C57.8183 486.363 38.1902 500.866 18.7475 515.652ZM79.3427 470.721H202.986C219.896 455.978 236.826 441.471 253.587 427.163H140.096C119.984 441.466 99.6641 455.968 79.3427 470.721ZM142.03 425.788H255.198C259.56 422.065 263.911 418.356 268.248 414.659C280.688 404.051 293.017 393.541 305.163 383.103C305.5 382.813 305.841 382.52 306.178 382.231H203.199C202.325 382.858 201.455 383.48 200.585 384.103C185.968 394.57 171.145 405.101 156.191 415.725C151.485 419.068 146.762 422.424 142.03 425.788ZM205.117 380.856H307.777C326.065 365.122 342.591 350.702 357.683 337.297H264.988C244.609 352.402 224.396 367.031 205.117 380.856ZM266.841 335.922H359.229C376.936 320.171 392.666 305.813 406.941 292.366H323.976C305.23 307.11 285.979 321.717 266.841 335.922ZM325.72 290.987H408.399C423.543 276.69 437.059 263.401 449.605 250.524C450.61 249.488 451.607 248.464 452.603 247.433H378.682C377.14 248.766 375.588 250.098 374.025 251.435C358.652 264.591 342.398 277.838 325.72 290.987ZM380.269 246.055H453.929C468.193 231.24 481.365 216.701 493.395 202.5H427.507C413.112 216.701 397.344 231.24 380.269 246.055ZM428.897 201.122H494.557C507.133 186.209 518.447 171.67 528.446 157.567H469.436C457.48 171.67 443.944 186.209 428.897 201.122ZM470.598 156.189H529.417C533.618 150.229 537.582 144.341 541.306 138.54C546.867 129.874 552.003 121.234 556.707 112.635H503.175C497.376 121.526 491.057 130.427 484.276 139.236C479.98 144.813 475.42 150.465 470.598 156.189ZM504.067 111.261H557.456C565.417 96.5689 572.111 82.0151 577.487 67.702H528.022C521.611 81.9277 513.547 96.5842 504.067 111.261ZM528.637 66.3229H578C579.743 61.6135 581.343 56.9298 582.798 52.2717C586.19 41.4021 588.643 31.5267 590.41 22.7689H543.458C541.328 31.6448 538.36 41.6581 534.244 52.6507C532.556 57.1501 530.684 61.7163 528.637 66.3229ZM25.7362 650.451H185.735C194.518 636.337 204.272 621.876 215.119 606.891H62.556C61.5515 608.003 60.5561 609.105 59.5654 610.207C47.1644 624.023 35.9339 637.383 25.7362 650.451ZM63.8054 605.518H216.117C226.305 591.502 237.452 577.025 249.647 561.963H105.796C90.4504 577.096 76.5417 591.528 63.8054 605.518ZM107.192 560.585H250.761C258.505 551.048 266.671 541.265 275.283 531.211C279.359 526.455 283.445 521.725 287.538 517.03H153.265C147.815 522.012 142.385 527.023 136.983 532.071C126.477 541.88 116.568 551.366 107.192 560.585ZM154.77 515.652H288.736C301.635 500.867 314.598 486.364 327.552 472.095H203.69C187.312 486.379 170.954 500.884 154.77 515.652ZM205.268 470.721H328.8C342.204 455.97 355.595 441.469 368.888 427.163H255.892C239.124 441.473 222.191 455.977 205.268 470.721ZM257.503 425.788H370.166C378.188 417.159 386.173 408.601 394.103 400.102C399.698 394.106 405.254 388.151 410.766 382.231H308.474C307.768 382.838 307.058 383.449 306.346 384.06C294.199 394.499 281.869 405.011 269.427 415.62C265.465 418.997 261.487 422.389 257.503 425.788ZM310.072 380.856H412.046C425.778 366.105 439.217 351.592 452.214 337.297H359.943C344.866 350.702 328.35 365.122 310.072 380.856ZM361.488 335.922H453.464C466.863 321.166 479.778 306.654 492.038 292.366H409.142C394.879 305.818 379.18 320.169 361.488 335.922ZM410.598 290.987H493.217C504.925 277.315 516.024 263.847 526.362 250.58C527.181 249.529 527.995 248.478 528.806 247.433H454.72C453.449 248.751 452.173 250.067 450.884 251.39C438.592 264.012 425.366 277.023 410.598 290.987ZM456.042 246.055H529.867C541.276 231.24 551.813 216.701 561.434 202.5H495.413C483.414 216.701 470.276 231.24 456.042 246.055ZM496.572 201.122H562.364C572.423 186.209 581.472 171.67 589.469 157.567H530.361C520.395 171.67 509.114 186.209 496.572 201.122ZM531.329 156.189H590.246C593.595 150.244 596.757 144.377 599.728 138.596C604.185 129.91 608.303 121.25 612.072 112.635H558.52C553.717 121.449 548.46 130.304 542.76 139.19C539.172 144.781 535.36 150.449 531.329 156.189ZM559.265 111.261H612.67C619.035 96.5738 624.389 82.0151 628.692 67.702H579.214C573.861 82.0201 567.196 96.5689 559.265 111.261ZM579.725 66.3229H629.098C630.493 61.6244 631.766 56.9505 632.927 52.3024C635.651 41.4071 637.617 31.5217 639.031 22.7689H592.08C590.303 31.624 587.827 41.6176 584.394 52.6146C582.974 57.1605 581.417 61.7316 579.725 66.3229ZM129.27 785.249H304.064C306.516 770.844 309.729 756.315 313.701 741.695H142.158C136.846 756.315 132.549 770.844 129.27 785.249ZM142.66 740.316H314.076C318.043 725.88 322.748 711.352 328.187 696.762H161.529C154.256 711.352 147.966 725.875 142.66 740.316ZM162.218 695.383H328.702C329.414 693.492 330.14 691.591 330.876 689.695C335.706 677.273 341.072 664.697 347.046 651.829H186.738C178.65 664.866 171.392 677.606 164.873 690.182C163.974 691.914 163.088 693.651 162.218 695.383ZM187.593 650.451H347.686C354.275 636.337 361.593 621.876 369.73 606.891H217.046C206.172 621.881 196.397 636.343 187.593 650.451ZM218.046 605.518H370.478C378.121 591.502 386.481 577.025 395.628 561.963H251.636C239.417 577.03 228.255 591.502 218.046 605.518ZM252.752 560.585H396.464C402.26 551.069 408.37 541.311 414.811 531.287C417.881 526.511 420.963 521.756 424.051 517.03H289.575C285.249 521.991 280.932 526.983 276.623 532.01C268.254 541.782 260.301 551.299 252.752 560.585ZM290.775 515.652H424.95C434.604 500.9 444.33 486.395 454.067 472.095H329.62C316.656 486.366 303.685 500.867 290.775 515.652ZM330.869 470.721H455.003C465.043 455.991 475.086 441.485 485.065 427.163H370.975C357.677 441.47 344.281 455.971 330.869 470.721ZM372.253 425.788H486.023C491.997 417.215 497.947 408.71 503.856 400.261C508.088 394.212 512.29 388.203 516.46 382.231H412.855C407.083 388.429 401.265 394.665 395.405 400.946C387.733 409.168 380.011 417.445 372.253 425.788ZM414.134 380.856H517.419C527.718 366.1 537.802 351.573 547.536 337.297H454.284C441.297 351.591 427.862 366.107 414.134 380.856ZM455.533 335.922H548.473C558.541 321.138 568.233 306.618 577.412 292.366H494.067C481.821 306.654 468.922 321.166 455.533 335.922ZM495.243 290.987H578.296C587.094 277.294 595.411 263.847 603.121 250.657C603.75 249.58 604.377 248.499 604.997 247.433H530.768C529.768 248.73 528.759 250.031 527.745 251.333C517.595 264.355 506.713 277.572 495.243 290.987ZM531.827 246.055H605.79C614.525 230.901 622.318 216.358 629.264 202.5H563.328C553.727 216.701 543.215 231.24 531.827 246.055ZM564.255 201.122H629.952C637.624 185.737 644.262 171.184 649.997 157.567H591.293C583.318 171.67 574.292 186.209 564.255 201.122ZM592.067 156.189H650.575C657.196 140.364 662.599 125.794 667 112.635H613.827C609.991 121.428 605.794 130.269 601.243 139.134C598.363 144.746 595.303 150.429 592.067 156.189ZM614.423 111.261H667.455C673.092 94.2678 677.05 79.6523 679.823 67.702H630.389C626.104 82.0201 620.769 96.5689 614.423 111.261ZM630.8 66.3229H680.143C681.329 61.1317 682.288 56.4584 683.062 52.3384C685.103 41.4125 686.585 31.5217 687.648 22.7689H640.697C639.271 31.5983 637.292 41.5765 634.544 52.584C633.407 57.1343 632.159 61.7163 630.8 66.3229ZM305.729 785.249H480.818C482.526 770.987 484.759 756.469 487.521 741.695H315.391C311.41 756.315 308.187 770.844 305.729 785.249ZM315.767 740.316H487.779C490.474 726.049 493.659 711.542 497.343 696.762H329.914C324.461 711.352 319.745 725.88 315.767 740.316ZM330.43 695.383H497.687C501.268 681.117 505.312 666.603 509.82 651.829H348.815C342.76 664.845 337.326 677.565 332.445 690.12C331.762 691.873 331.091 693.631 330.43 695.383ZM349.456 650.451H510.24C514.619 636.179 519.43 621.665 524.678 606.891H371.54C363.387 621.881 356.057 636.343 349.456 650.451ZM372.289 605.518H525.168C530.262 591.24 535.76 576.727 541.672 561.963H397.478C388.316 577.03 379.944 591.507 372.289 605.518ZM398.315 560.585H542.223C546.09 550.956 550.129 541.224 554.346 531.38C556.405 526.573 558.472 521.791 560.547 517.03H425.93C422.7 521.971 419.475 526.941 416.265 531.938C409.967 541.737 403.992 551.273 398.315 560.585ZM426.829 515.652H561.147C567.569 500.935 574.058 486.421 580.562 472.095H455.964C446.223 486.394 436.489 500.903 426.829 515.652ZM456.901 470.721H581.186C587.87 456.011 594.566 441.502 601.224 427.163H486.972C476.992 441.486 466.944 455.992 456.901 470.721ZM487.93 425.788H601.862C605.812 417.285 609.748 408.841 613.655 400.455C616.509 394.34 619.336 388.267 622.146 382.231H518.368C514.041 388.429 509.674 394.672 505.281 400.954C499.53 409.176 493.743 417.449 487.93 425.788ZM519.327 380.856H622.785C629.651 366.087 636.37 351.562 642.855 337.297H549.433C539.702 351.575 529.626 366.097 519.327 380.856ZM550.37 335.922H643.482C650.207 321.112 656.667 306.587 662.777 292.366H579.284C570.115 306.618 560.432 321.138 550.37 335.922ZM580.167 290.987H663.367C669.238 277.284 674.776 263.863 679.891 250.744C680.321 249.637 680.745 248.535 681.169 247.433H606.827C606.094 248.699 605.351 249.98 604.604 251.256C597.005 264.258 588.821 277.505 580.167 290.987ZM607.62 246.055H681.704C687.525 230.901 692.713 216.358 697.348 202.5H631.052C624.119 216.358 616.337 230.901 607.62 246.055ZM631.735 201.122H697.803C702.917 185.732 707.343 171.184 711.161 157.567H651.743C646.02 171.189 639.4 185.732 631.735 201.122ZM652.321 156.189H711.548C715.961 140.359 719.563 125.8 722.495 112.635H668.709C664.32 125.794 658.929 140.364 652.321 156.189ZM669.17 111.261H722.803C726.559 94.2628 729.196 79.6523 731.04 67.702H681.501C678.741 79.6424 674.795 94.2628 669.17 111.261ZM681.821 66.3229H731.255C732.042 61.1426 732.681 56.4836 733.191 52.374C734.562 41.4229 735.546 31.5217 736.259 22.7689H689.308C688.238 31.5781 686.75 41.5459 684.691 52.5479C683.929 56.617 682.982 61.2138 681.821 66.3229ZM482.475 785.249H657.159C658.038 770.69 659.175 756.167 660.54 741.695H489.189C486.423 756.474 484.186 770.987 482.475 785.249ZM489.448 740.316H660.669C662.058 725.742 663.675 711.219 665.494 696.762H499.027C495.34 711.536 492.147 726.055 489.448 740.316ZM499.371 695.383H665.667C667.511 680.804 669.557 666.265 671.764 651.829H511.521C507.006 666.603 502.958 681.117 499.371 695.383ZM511.943 650.451H671.979C674.223 635.845 676.645 621.322 679.202 606.891H526.398C521.141 621.671 516.328 636.174 511.943 650.451ZM526.888 605.518H679.442C682.042 590.898 684.784 576.374 687.624 561.963H543.41C537.495 576.722 531.985 591.245 526.888 605.518ZM543.962 560.585H687.9C690.789 545.954 693.795 531.415 696.869 517.03H562.301C560.158 521.945 558.024 526.88 555.898 531.841C551.75 541.531 547.771 551.109 543.962 560.585ZM562.901 515.652H697.164C700.299 500.992 703.508 486.473 706.747 472.095H582.324C575.817 486.424 569.327 500.934 562.901 515.652ZM582.949 470.721H707.054C710.374 456.04 713.717 441.513 717.055 427.163H602.992C596.333 441.503 589.636 456.011 582.949 470.721ZM603.63 425.788H717.375C720.11 414.028 722.846 402.373 725.551 390.854C726.227 387.971 726.897 385.095 727.573 382.231H623.916C621.027 388.43 618.119 394.67 615.193 400.954C611.361 409.176 607.503 417.453 603.63 425.788ZM624.555 380.856H727.893C731.359 366.073 734.753 351.55 738.023 337.297H644.619C638.14 351.562 631.421 366.087 624.555 380.856ZM645.246 335.922H738.343C741.742 321.091 745.012 306.566 748.085 292.366H664.529C658.425 306.587 651.965 321.111 645.246 335.922ZM665.119 290.987H748.387C751.344 277.294 754.122 263.904 756.667 250.846C756.888 249.703 757.109 248.571 757.331 247.433H682.903C682.423 248.674 681.943 249.919 681.458 251.169C676.399 264.155 670.922 277.433 665.119 290.987ZM683.431 246.055H757.595C760.466 231.085 763.047 216.537 765.365 202.5H699.057C694.434 216.358 689.246 230.906 683.431 246.055ZM699.512 201.122H765.592C768.076 186.005 770.252 171.476 772.163 157.567H712.857C709.04 171.189 704.626 185.732 699.512 201.122ZM713.238 156.189H772.354C774.444 140.861 776.214 126.323 777.708 112.635H724.174C721.242 125.794 717.652 140.359 713.238 156.189ZM724.475 111.261H777.856C779.558 95.5544 780.899 80.9795 781.949 67.702H732.706C730.862 79.6424 728.224 94.2628 724.475 111.261ZM732.914 66.3229H782.06C783.357 49.6885 784.212 35.0833 784.759 22.7689H737.912C737.199 31.5628 736.21 41.5098 734.833 52.5173C734.322 56.5918 733.695 61.2039 732.914 66.3229ZM658.813 785.249H833.468V741.695H662.193C660.829 756.172 659.691 770.68 658.813 785.249ZM662.323 740.316H833.468V696.762H667.148C665.334 711.219 663.712 725.742 662.323 740.316ZM667.326 695.383H833.468V651.829H673.43C671.217 666.275 669.17 680.793 667.326 695.383ZM673.639 650.451H833.468V606.891H680.868C678.311 621.327 675.889 635.845 673.639 650.451ZM681.114 605.518H833.468V561.963H689.296C686.449 576.379 683.714 590.898 681.114 605.518ZM689.572 560.585H833.468V517.03H698.547C695.467 531.426 692.467 545.944 689.572 560.585ZM698.842 515.652H833.468V472.095H708.425C705.186 486.474 701.977 500.991 698.842 515.652ZM708.732 470.721H833.468V427.163H718.734C715.396 441.514 712.051 456.04 708.732 470.721ZM719.053 425.788H833.468V382.231H729.251C728.557 385.183 727.862 388.147 727.167 391.118C724.487 402.555 721.776 414.113 719.053 425.788ZM729.571 380.856H833.468V337.297H739.707C736.431 351.547 733.038 366.075 729.571 380.856ZM740.021 335.922H833.468V292.366H749.764C746.69 306.566 743.42 321.091 740.021 335.922ZM750.059 290.987H833.468V247.433H759.003C758.769 248.638 758.529 249.858 758.296 251.067C755.763 264.053 753.004 277.371 750.059 290.987ZM759.267 246.055H833.468V202.5H767.031C764.713 216.542 762.132 231.076 759.267 246.055ZM767.258 201.122H833.468V157.567H773.823C771.911 171.466 769.736 186.015 767.258 201.122ZM774.013 156.189H833.468V112.635H779.361C777.874 126.318 776.104 140.871 774.013 156.189ZM779.516 111.261H833.468V67.702H783.603C782.552 80.9849 781.212 95.5495 779.516 111.261ZM783.707 66.3229H833.468V22.7689H786.412C785.859 35.0833 785.011 49.6835 783.707 66.3229ZM835.115 785.249H1009.77C1008.89 770.68 1007.75 756.172 1006.39 741.695H835.115V785.249ZM835.115 740.316H1006.26C1004.87 725.742 1003.25 711.219 1001.43 696.762H835.115V740.316ZM835.115 695.383H1001.26C999.412 680.804 997.365 666.265 995.152 651.829H835.115V695.383ZM835.115 650.451H994.944C992.694 635.845 990.271 621.327 987.715 606.891H835.115V650.451ZM835.115 605.518H987.469C984.869 590.898 982.133 576.379 979.287 561.963H835.115V605.518ZM835.115 560.585H979.016C976.116 545.944 973.115 531.426 970.036 517.03H835.115V560.585ZM835.115 515.652H969.747C966.606 501.001 963.397 486.465 960.158 472.095H835.115V515.652ZM835.115 470.721H959.85C956.531 456.04 953.187 441.513 949.849 427.163H835.115V470.721ZM835.115 425.788H949.53C946.813 414.113 944.102 402.559 941.415 391.122C940.721 388.147 940.026 385.186 939.332 382.231H835.115V425.788ZM835.115 380.856H939.012C935.545 366.075 932.152 351.547 928.881 337.297H835.115V380.856ZM835.115 335.922H928.562C925.163 321.094 921.892 306.561 918.819 292.366H835.115V335.922ZM835.115 290.987H918.524C915.579 277.371 912.819 264.057 910.287 251.067C910.053 249.858 909.814 248.638 909.586 247.433H835.115V290.987ZM835.115 246.055H909.322C906.451 231.076 903.869 216.542 901.552 202.5H835.115V246.055ZM835.115 201.122H901.331C898.847 186.015 896.671 171.466 894.76 157.567H835.115V201.122ZM835.115 156.189H894.575C892.479 140.871 890.709 126.318 889.221 112.635H835.115V156.189ZM835.115 111.261H889.067C887.371 95.5495 886.031 80.9849 884.98 67.702H835.115V111.261ZM835.115 66.3229H884.875C883.572 49.6835 882.723 35.0833 882.17 22.7689H835.115V66.3229ZM1011.42 785.249H1186.11C1184.39 770.987 1182.16 756.474 1179.39 741.695H1008.04C1009.41 756.167 1010.54 770.69 1011.42 785.249ZM1007.91 740.316H1179.13C1176.43 726.055 1173.24 711.536 1169.56 696.762H1003.09C1004.91 711.219 1006.52 725.742 1007.91 740.316ZM1002.92 695.383H1169.21C1165.62 681.117 1161.58 666.603 1157.06 651.829H996.818C999.025 666.265 1001.07 680.804 1002.92 695.383ZM996.604 650.451H1156.64C1152.26 636.174 1147.44 621.671 1142.18 606.891H989.38C991.937 621.322 994.359 635.85 996.604 650.451ZM989.141 605.518H1141.7C1136.6 591.245 1131.09 576.722 1125.17 561.963H980.959C983.799 576.374 986.541 590.898 989.141 605.518ZM980.682 560.585H1124.62C1120.81 551.109 1116.83 541.531 1112.68 531.841C1110.56 526.88 1108.42 521.94 1106.28 517.03H971.714C974.787 531.426 977.787 545.949 980.682 560.585ZM971.419 515.652H1105.68C1099.25 500.934 1092.77 486.424 1086.26 472.095H961.836C965.075 486.473 968.284 500.992 971.419 515.652ZM961.529 470.721H1085.64C1078.95 456.013 1072.25 441.501 1065.59 427.163H951.527C954.865 441.513 958.215 456.04 961.529 470.721ZM951.207 425.788H1064.95C1061.08 417.453 1057.22 409.172 1053.39 400.95C1050.46 394.67 1047.55 388.427 1044.67 382.231H941.016C941.686 385.098 942.362 387.971 943.038 390.857C945.737 402.376 948.472 414.028 951.207 425.788ZM940.69 380.856H1044.03C1037.16 366.088 1030.44 351.562 1023.96 337.297H930.56C933.83 351.547 937.23 366.075 940.69 380.856ZM930.24 335.922H1023.34C1016.62 321.112 1010.16 306.587 1004.05 292.366H920.497C923.571 306.561 926.84 321.094 930.24 335.922ZM920.196 290.987H1003.46C997.66 277.433 992.184 264.155 987.125 251.169C986.639 249.919 986.16 248.674 985.68 247.433H911.252C911.474 248.571 911.694 249.703 911.916 250.846C914.461 263.904 917.239 277.289 920.196 290.987ZM910.988 246.055H985.152C979.336 230.906 974.148 216.358 969.526 202.5H903.218C905.535 216.537 908.117 231.085 910.988 246.055ZM902.991 201.122H969.065C963.956 185.732 959.543 171.189 955.726 157.567H896.419C898.331 171.476 900.507 186.005 902.991 201.122ZM896.235 156.189H955.345C950.931 140.359 947.341 125.794 944.409 112.635H890.875C892.368 126.323 894.139 140.861 896.235 156.189ZM890.727 111.261H944.107C940.358 94.2628 937.721 79.6424 935.877 67.702H886.633C887.684 80.9795 889.024 95.5544 890.727 111.261ZM886.523 66.3229H935.668C934.887 61.2039 934.26 56.5918 933.75 52.5173C932.373 41.5098 931.383 31.5628 930.671 22.7689H883.824C884.371 35.0833 885.226 49.6885 886.523 66.3229ZM1187.76 785.249H1362.85C1360.4 770.844 1357.18 756.315 1353.19 741.695H1181.06C1183.82 756.469 1186.05 770.987 1187.76 785.249ZM1180.8 740.316H1352.82C1348.84 725.88 1344.12 711.352 1338.67 696.762H1171.24C1174.92 711.542 1178.11 726.049 1180.8 740.316ZM1170.9 695.383H1338.16C1337.49 693.631 1336.82 691.873 1336.14 690.12C1331.25 677.56 1325.83 664.845 1319.77 651.829H1158.76C1163.27 666.603 1167.31 681.117 1170.9 695.383ZM1158.34 650.451H1319.13C1312.53 636.343 1305.2 621.876 1297.04 606.891H1143.9C1149.15 621.665 1153.97 636.179 1158.34 650.451ZM1143.41 605.518H1296.29C1288.64 591.502 1280.27 577.035 1271.1 561.963H1126.91C1132.82 576.727 1138.32 591.24 1143.41 605.518ZM1126.36 560.585H1270.27C1264.59 551.273 1258.61 541.737 1252.32 531.938C1249.11 526.941 1245.88 521.971 1242.65 517.03H1108.04C1110.11 521.791 1112.18 526.573 1114.24 531.38C1118.46 541.224 1122.49 550.956 1126.36 560.585ZM1107.43 515.652H1241.75C1232.1 500.903 1222.36 486.394 1212.62 472.095H1088.02C1094.53 486.422 1101.02 500.935 1107.43 515.652ZM1087.39 470.721H1211.68C1201.64 455.992 1191.59 441.486 1181.61 427.163H1067.36C1074.01 441.5 1080.71 456.013 1087.39 470.721ZM1066.72 425.788H1180.65C1174.84 417.449 1169.05 409.176 1163.3 400.954C1158.91 394.672 1154.54 388.429 1150.22 382.231H1046.44C1049.25 388.264 1052.07 394.341 1054.93 400.453C1058.84 408.841 1062.77 417.282 1066.72 425.788ZM1045.8 380.856H1149.26C1138.96 366.097 1128.88 351.575 1119.15 337.297H1025.73C1032.21 351.559 1038.93 366.09 1045.8 380.856ZM1025.1 335.922H1118.22C1108.15 321.138 1098.47 306.618 1089.3 292.366H1005.81C1011.92 306.587 1018.38 321.112 1025.1 335.922ZM1005.22 290.987H1088.41C1079.76 277.505 1071.58 264.258 1063.98 251.256C1063.23 249.98 1062.49 248.699 1061.76 247.433H987.413C987.838 248.535 988.262 249.637 988.692 250.744C993.806 263.863 999.345 277.284 1005.22 290.987ZM986.879 246.055H1060.96C1052.25 230.901 1044.46 216.358 1037.53 202.5H971.235C975.869 216.358 981.057 230.901 986.879 246.055ZM970.78 201.122H1036.85C1029.18 185.732 1022.56 171.189 1016.84 157.567H957.422C961.24 171.184 965.666 185.732 970.78 201.122ZM957.035 156.189H1016.26C1009.65 140.364 1004.26 125.794 999.873 112.635H946.087C949.019 125.8 952.621 140.359 957.035 156.189ZM945.78 111.261H999.412C993.794 94.2628 989.841 79.6424 987.082 67.702H937.543C939.387 79.6523 942.024 94.2628 945.78 111.261ZM937.328 66.3229H986.762C985.6 61.2138 984.659 56.617 983.891 52.5479C981.832 41.5459 980.345 31.5781 979.275 22.7689H932.324C933.037 31.5217 934.021 41.4229 935.391 52.374C935.901 56.4836 936.541 61.1426 937.328 66.3229ZM1364.52 785.249H1539.31C1536.03 770.844 1531.74 756.315 1526.43 741.695H1354.88C1358.85 756.315 1362.07 770.844 1364.52 785.249ZM1354.51 740.316H1525.92C1520.62 725.875 1514.33 711.352 1507.05 696.762H1340.39C1345.83 711.352 1350.54 725.88 1354.51 740.316ZM1339.88 695.383H1506.36C1505.5 693.651 1504.6 691.914 1503.71 690.182C1497.19 677.606 1489.93 664.866 1481.84 651.829H1321.53C1327.51 664.692 1332.88 677.273 1337.71 689.695C1338.44 691.591 1339.17 693.492 1339.88 695.383ZM1320.9 650.451H1480.99C1472.19 636.343 1462.41 621.881 1451.54 606.891H1298.85C1306.99 621.876 1314.31 636.337 1320.9 650.451ZM1298.1 605.518H1450.54C1440.33 591.502 1429.17 577.03 1416.95 561.963H1272.95C1282.1 577.03 1290.46 591.502 1298.1 605.518ZM1272.12 560.585H1415.83C1408.28 551.299 1400.33 541.788 1391.96 532.01C1387.65 526.983 1383.34 521.991 1379.01 517.03H1244.53C1247.62 521.756 1250.7 526.511 1253.77 531.287C1260.21 541.311 1266.32 551.069 1272.12 560.585ZM1243.63 515.652H1377.81C1364.9 500.869 1351.93 486.364 1338.96 472.095H1214.51C1224.25 486.395 1233.98 500.9 1243.63 515.652ZM1213.58 470.721H1337.71C1324.3 455.97 1310.91 441.47 1297.61 427.163H1183.52C1193.5 441.485 1203.54 455.991 1213.58 470.721ZM1182.56 425.788H1296.33C1288.57 417.444 1280.85 409.164 1273.18 400.941C1267.32 394.664 1261.5 388.425 1255.73 382.231H1152.12C1156.29 388.203 1160.5 394.212 1164.72 400.261C1170.64 408.71 1176.59 417.215 1182.56 425.788ZM1151.16 380.856H1254.45C1240.72 366.108 1227.28 351.591 1214.3 337.297H1121.05C1130.78 351.573 1140.87 366.1 1151.16 380.856ZM1120.11 335.922H1213.05C1199.66 321.167 1186.76 306.654 1174.52 292.366H1091.17C1100.35 306.618 1110.04 321.138 1120.11 335.922ZM1090.28 290.987H1173.34C1161.87 277.572 1150.99 264.355 1140.84 251.333C1139.82 250.031 1138.81 248.73 1137.81 247.433H1063.59C1064.21 248.499 1064.83 249.58 1065.46 250.657C1073.17 263.847 1081.49 277.294 1090.28 290.987ZM1062.79 246.055H1136.76C1125.37 231.24 1114.85 216.701 1105.25 202.5H1039.32C1046.26 216.358 1054.06 230.901 1062.79 246.055ZM1038.63 201.122H1104.33C1094.29 186.209 1085.26 171.67 1077.29 157.567H1018.58C1024.32 171.184 1030.96 185.737 1038.63 201.122ZM1018.01 156.189H1076.51C1073.28 150.429 1070.22 144.746 1067.34 139.139C1062.79 130.269 1058.59 121.428 1054.75 112.635H1001.58C1005.98 125.794 1011.39 140.364 1018.01 156.189ZM1001.13 111.261H1054.16C1047.81 96.5689 1042.48 82.0151 1038.19 67.702H988.76C991.532 79.6523 995.491 94.2678 1001.13 111.261ZM988.44 66.3229H1037.79C1036.43 61.7163 1035.18 57.1343 1034.04 52.584C1031.29 41.5765 1029.31 31.5983 1027.89 22.7689H980.934C981.998 31.5217 983.48 41.4125 985.52 52.3384C986.295 56.4584 987.254 61.1317 988.44 66.3229ZM1540.99 785.249H1715.59C1711.47 770.833 1706.1 756.279 1699.52 741.695H1528.15C1533.44 756.315 1537.73 770.844 1540.99 785.249ZM1527.64 740.316H1698.89C1692.26 725.788 1684.42 711.229 1675.42 696.762H1508.84C1516.09 711.347 1522.36 725.88 1527.64 740.316ZM1508.15 695.383H1674.56C1673.49 693.667 1672.39 691.95 1671.28 690.233C1663.09 677.586 1654.01 664.845 1643.91 651.829H1483.7C1491.65 664.676 1498.79 677.232 1505.22 689.634C1506.22 691.55 1507.19 693.472 1508.15 695.383ZM1482.84 650.451H1642.85C1632.65 637.378 1621.42 624.023 1609.02 610.207C1608.03 609.105 1607.03 607.998 1606.02 606.891H1453.46C1464.31 621.876 1474.07 636.337 1482.84 650.451ZM1452.47 605.518H1604.78C1592.04 591.522 1578.13 577.096 1562.79 561.963H1418.93C1431.13 577.025 1442.28 591.502 1452.47 605.518ZM1417.82 560.585H1561.39C1552.01 551.366 1542.1 541.88 1531.6 532.071C1526.2 527.023 1520.77 522.012 1515.32 517.03H1381.04C1385.14 521.725 1389.23 526.455 1393.3 531.211C1401.91 541.265 1410.08 551.043 1417.82 560.585ZM1379.84 515.652H1513.81C1497.63 500.884 1481.27 486.378 1464.9 472.095H1341.03C1353.98 486.364 1366.95 500.866 1379.84 515.652ZM1339.79 470.721H1463.32C1446.39 455.977 1429.46 441.473 1412.69 427.163H1299.69C1312.99 441.469 1326.38 455.969 1339.79 470.721ZM1298.42 425.788H1411.08C1407.09 422.389 1403.12 418.999 1399.16 415.621C1386.72 405.012 1374.39 394.499 1362.23 384.06C1361.53 383.449 1360.81 382.838 1360.11 382.231H1257.81C1263.33 388.147 1268.89 394.106 1274.48 400.097C1282.41 408.598 1290.39 417.158 1298.42 425.788ZM1256.54 380.856H1358.51C1340.23 365.121 1323.72 350.702 1308.64 337.297H1216.37C1229.37 351.591 1242.8 366.106 1256.54 380.856ZM1215.12 335.922H1307.1C1289.4 320.172 1273.7 305.818 1259.44 292.366H1176.54C1188.8 306.648 1201.72 321.169 1215.12 335.922ZM1175.36 290.987H1257.99C1243.22 277.018 1229.99 264.012 1217.7 251.39C1216.41 250.067 1215.14 248.751 1213.86 247.433H1139.77C1140.58 248.478 1141.4 249.529 1142.22 250.58C1152.56 263.847 1163.66 277.315 1175.36 290.987ZM1138.72 246.055H1212.54C1198.31 231.24 1185.17 216.701 1173.17 202.5H1107.14C1116.77 216.701 1127.31 231.24 1138.72 246.055ZM1106.22 201.122H1172.01C1159.47 186.209 1148.19 171.67 1138.22 157.567H1079.11C1087.11 171.67 1096.16 186.209 1106.22 201.122ZM1078.33 156.189H1137.25C1133.22 150.449 1129.41 144.781 1125.82 139.19C1120.12 130.304 1114.87 121.449 1110.06 112.635H1056.51C1060.28 121.25 1064.4 129.91 1068.86 138.596C1071.82 144.377 1074.99 150.244 1078.33 156.189ZM1055.91 111.261H1109.32C1101.39 96.5689 1094.72 82.0201 1089.37 67.702H1039.89C1044.19 82.0151 1049.55 96.5689 1055.91 111.261ZM1039.48 66.3229H1088.86C1087.17 61.7316 1085.61 57.1605 1084.19 52.6146C1080.76 41.6176 1078.28 31.624 1076.5 22.7689H1029.55C1030.96 31.5217 1032.93 41.4071 1035.66 52.3024C1036.82 56.9505 1038.1 61.6244 1039.48 66.3229ZM1078.17 22.7689C1079.94 31.5267 1082.39 41.4021 1085.78 52.2717C1087.24 56.9298 1088.84 61.6135 1090.58 66.3229H1139.95C1137.9 61.7163 1136.03 57.1501 1134.34 52.6507C1130.22 41.6581 1127.25 31.6448 1125.13 22.7689H1078.17ZM1091.1 67.702C1096.47 82.0151 1103.17 96.5689 1111.13 111.261H1164.52C1155.04 96.5842 1146.97 81.9277 1140.56 67.702H1091.1ZM1111.87 112.635C1116.58 121.234 1121.71 129.874 1127.28 138.54C1131 144.341 1134.97 150.229 1139.16 156.189H1197.99C1193.16 150.465 1188.6 144.813 1184.31 139.236C1177.52 130.427 1171.21 121.531 1165.41 112.635H1111.87ZM1140.14 157.567C1150.14 171.67 1161.45 186.209 1174.02 201.122H1239.69C1224.64 186.209 1211.1 171.67 1199.15 157.567H1140.14ZM1175.19 202.5C1187.22 216.701 1200.39 231.24 1214.66 246.055H1288.32C1271.24 231.24 1255.47 216.701 1241.08 202.5H1175.19ZM1215.98 247.433C1216.97 248.464 1217.98 249.488 1218.98 250.524C1231.52 263.401 1245.03 276.69 1260.18 290.987H1342.86C1326.19 277.838 1309.93 264.591 1294.56 251.435C1292.99 250.098 1291.44 248.766 1289.9 247.433H1215.98ZM1261.64 292.366C1275.92 305.813 1291.64 320.167 1309.36 335.922H1401.74C1382.61 321.72 1363.35 307.11 1344.61 292.366H1261.64ZM1310.9 337.297C1325.99 350.703 1342.51 365.121 1360.81 380.856H1463.47C1444.19 367.031 1423.97 352.402 1403.6 337.297H1310.9ZM1362.41 382.231C1362.74 382.52 1363.08 382.813 1363.42 383.103C1375.57 393.541 1387.9 404.052 1400.34 414.66C1404.67 418.357 1409.02 422.065 1413.38 425.788H1526.55C1521.84 422.434 1517.13 419.088 1512.43 415.754C1497.47 405.12 1482.63 394.58 1468 384.103C1467.13 383.48 1466.26 382.858 1465.39 382.231H1362.41ZM1414.99 427.163C1431.76 441.472 1448.69 455.975 1465.6 470.721H1589.24C1568.92 455.967 1548.6 441.467 1528.49 427.163H1414.99ZM1467.18 472.095C1483.54 486.377 1499.88 500.883 1516.04 515.652H1649.83C1630.4 500.868 1610.76 486.362 1591.13 472.095H1467.18ZM1517.55 517.03C1522.66 521.709 1527.76 526.419 1532.83 531.154C1543.68 541.291 1553.9 551.074 1563.55 560.585H1706.93C1695.7 551.381 1683.82 541.906 1671.24 532.112C1664.73 527.055 1658.19 522.022 1651.64 517.03H1517.55ZM1126.8 22.7689C1128.92 31.5321 1131.86 41.4071 1135.91 52.2411C1137.65 56.8734 1139.58 61.5779 1141.7 66.3229H1191.01C1188.64 61.7267 1186.45 57.1704 1184.49 52.6813C1179.69 41.6991 1176.24 31.6754 1173.75 22.7689H1126.8ZM1142.32 67.702C1148.77 81.9277 1156.87 96.5842 1166.39 111.261H1219.67C1208.61 96.5842 1199.21 81.9277 1191.73 67.702H1142.32ZM1167.29 112.635C1172.95 121.28 1179.1 129.93 1185.7 138.493C1190.17 144.31 1194.95 150.209 1200 156.189H1258.71C1253.1 150.48 1247.79 144.838 1242.79 139.277C1234.87 130.453 1227.49 121.542 1220.71 112.635H1167.29ZM1201.17 157.567C1213.17 171.665 1226.75 186.209 1241.84 201.122H1307.35C1289.8 186.214 1274.01 171.665 1260.06 157.567H1201.17ZM1243.23 202.5C1257.67 216.701 1273.48 231.24 1290.6 246.055H1364.08C1344.16 231.24 1325.77 216.701 1308.98 202.5H1243.23ZM1292.19 247.433C1293.37 248.443 1294.55 249.462 1295.74 250.478C1311.48 263.95 1328.15 277.525 1345.26 290.987H1427.71C1408.27 277.848 1389.34 264.616 1371.41 251.471C1369.57 250.124 1367.75 248.776 1365.93 247.433H1292.19ZM1347.01 292.366C1365.79 307.115 1385.07 321.723 1404.22 335.922H1496.4C1474.08 321.719 1451.61 307.105 1429.75 292.366H1347.01ZM1406.08 337.297C1426.49 352.412 1446.72 367.041 1466 380.856H1568.41C1545.92 367.031 1522.34 352.4 1498.57 337.297H1406.08ZM1467.91 382.231C1468.3 382.509 1468.69 382.785 1469.08 383.062C1483.7 393.535 1498.54 404.075 1513.51 414.707C1518.69 418.389 1523.88 422.081 1529.09 425.788H1642.02C1636.56 422.466 1631.12 419.154 1625.7 415.851C1608.21 405.201 1590.87 394.638 1573.75 384.135C1572.72 383.503 1571.69 382.867 1570.65 382.231H1467.91ZM1531.03 427.163C1551.14 441.465 1571.45 455.967 1591.75 470.721H1715.16C1691.44 455.96 1667.73 441.46 1644.27 427.163H1531.03ZM1175.44 22.7689C1177.91 31.5425 1181.32 41.4125 1186.04 52.21C1188.07 56.8532 1190.33 61.5676 1192.81 66.3229H1242.08C1239.37 61.7365 1236.88 57.1912 1234.64 52.707C1229.17 41.7455 1225.22 31.7016 1222.4 22.7689H1175.44ZM1193.54 67.702C1201.06 81.9331 1210.51 96.5842 1221.62 111.261H1274.82C1262.19 96.5842 1251.45 81.9277 1242.9 67.702H1193.54ZM1222.67 112.635C1229.26 121.27 1236.43 129.9 1244.11 138.453C1249.35 144.285 1254.93 150.198 1260.85 156.189H1319.41C1313.03 150.506 1306.98 144.874 1301.28 139.314C1292.21 130.479 1283.76 121.556 1276.01 112.635H1222.67ZM1262.2 157.567C1276.21 171.67 1292.05 186.209 1309.66 201.122H1374.92C1371.02 198.237 1367.23 195.367 1363.52 192.528C1348.14 180.746 1333.9 169.047 1320.95 157.567H1262.2ZM1311.29 202.5C1328.14 216.701 1346.58 231.24 1366.56 246.055H1439.83C1416.91 231.142 1395.78 216.547 1376.77 202.5H1311.29ZM1368.42 247.433C1369.77 248.433 1371.13 249.437 1372.5 250.442C1390.89 263.925 1410.36 277.51 1430.34 290.987H1512.56C1490.36 277.858 1468.73 264.632 1448.26 251.502C1446.15 250.144 1444.04 248.786 1441.95 247.433H1368.42ZM1432.38 292.366C1454.29 307.115 1476.78 321.725 1499.12 335.922H1591.06C1565.55 321.719 1539.87 307.105 1514.89 292.366H1432.38ZM1501.29 337.297C1525.11 352.41 1548.71 367.043 1571.2 380.856H1673.36C1647.65 367.031 1620.7 352.399 1593.53 337.297H1501.29ZM1224.1 22.7689C1226.9 31.5578 1230.79 41.4174 1236.16 52.1793C1238.26 56.3714 1240.82 61.1065 1243.93 66.3229H1293.16C1289.83 61.3264 1287.07 56.7815 1284.79 52.7377C1279.19 42.7654 1274.67 32.7467 1271.25 22.7689H1224.1ZM1244.76 67.702C1252.13 79.9038 1262.48 94.6571 1276.85 111.261H1329.96C1313.88 94.6374 1302.31 79.883 1294.08 67.702H1244.76ZM1278.04 112.635C1285.19 120.814 1293.31 129.439 1302.53 138.417C1308.54 144.269 1314.93 150.198 1321.66 156.189H1380.12C1372.97 150.516 1366.17 144.889 1359.76 139.344C1349 130.028 1339.57 121.09 1331.3 112.635H1278.04ZM1323.22 157.567C1335.85 168.719 1349.71 180.08 1364.63 191.518C1368.77 194.69 1373.03 197.893 1377.4 201.122H1442.56C1438.2 198.242 1433.93 195.387 1429.78 192.554C1412.46 180.762 1396.43 169.052 1381.86 157.567H1323.22ZM1379.26 202.5C1398.35 216.553 1419.54 231.147 1442.52 246.055H1515.59C1489.8 231.137 1466.03 216.547 1444.65 202.5H1379.26ZM1444.64 247.433C1446.18 248.422 1447.72 249.416 1449.27 250.411C1470.3 263.904 1492.56 277.499 1515.41 290.987H1597.33C1571.16 277.223 1547.28 264.17 1525.11 251.523C1522.71 250.159 1520.34 248.791 1517.97 247.433H1444.64ZM1517.75 292.366C1542.79 307.115 1568.5 321.725 1594.03 335.922H1685.65C1671.39 328.867 1657.98 322.158 1645.06 315.611C1629.27 307.617 1614.27 299.884 1599.95 292.366H1517.75ZM1272.97 22.7689C1276.34 32.552 1280.79 42.3755 1286.29 52.1536C1288.65 56.3507 1291.54 61.0962 1295.05 66.3229H1344.22C1340.54 61.3373 1337.47 56.8018 1334.95 52.7634C1328.72 42.7807 1323.69 32.757 1319.89 22.7689H1272.97ZM1295.97 67.702C1304.28 79.9087 1315.92 94.6571 1332.08 111.261H1385.11C1367.23 94.6374 1354.39 79.883 1345.24 67.702H1295.97ZM1333.43 112.635C1341.46 120.803 1350.59 129.418 1360.95 138.391C1367.72 144.248 1374.92 150.188 1382.51 156.189H1440.83C1432.89 150.521 1425.36 144.91 1418.25 139.37C1406.28 130.043 1395.78 121.101 1386.59 112.635H1333.43ZM1384.26 157.567C1398.46 168.709 1414.03 180.06 1430.82 191.492C1435.49 194.67 1440.29 197.883 1445.22 201.122H1510.2C1505.37 198.252 1500.64 195.403 1496.03 192.574C1476.78 180.777 1458.96 169.057 1442.76 157.567H1384.26ZM1447.31 202.5C1468.79 216.553 1492.63 231.142 1518.49 246.055H1591.34C1562.69 231.142 1536.29 216.553 1512.52 202.5H1447.31ZM1520.88 247.433C1522.59 248.417 1524.31 249.401 1526.04 250.39C1548.81 263.381 1573.4 276.803 1600.42 290.987H1682.16C1653.12 277.238 1626.59 264.191 1601.96 251.543C1599.28 250.17 1596.63 248.796 1593.99 247.433H1520.88ZM1321.62 22.7689C1325.37 32.5411 1330.31 42.3558 1336.41 52.1279C1339.04 56.3353 1342.26 61.0858 1346.16 66.3229H1395.23C1391.57 61.7884 1388.19 57.2677 1385.11 52.7896C1378.35 42.9398 1372.79 32.8287 1368.58 22.7689H1321.62ZM1347.19 67.702C1356.43 79.9087 1369.36 94.6571 1387.33 111.261H1440.14C1432.67 104.979 1425.74 98.742 1419.38 92.5769C1410.81 84.2802 1403.11 75.9627 1396.34 67.702H1347.19ZM1388.82 112.635C1397.74 120.798 1407.87 129.403 1419.37 138.365C1426.9 144.233 1434.91 150.178 1443.37 156.189H1501.54C1492.82 150.531 1484.54 144.925 1476.72 139.391C1464.09 130.443 1452.41 121.495 1441.78 112.635H1388.82ZM1445.31 157.567C1461.08 168.704 1478.37 180.044 1497.01 191.467C1502.21 194.655 1507.56 197.873 1513.05 201.122H1577.84C1572.53 198.257 1567.35 195.413 1562.29 192.594C1541.1 180.787 1521.48 169.067 1503.66 157.567H1445.31ZM1515.37 202.5C1539.24 216.557 1565.73 231.147 1594.46 246.055H1667.09C1635.57 231.137 1606.52 216.547 1580.39 202.5H1515.37ZM1370.32 22.7689C1374.48 32.5979 1379.92 42.4783 1386.54 52.1027C1389.77 56.8117 1393.34 61.5577 1397.22 66.3229H1446.28C1442.3 61.7934 1438.62 57.2836 1435.26 52.8093C1427.12 41.9452 1421.33 31.793 1417.22 22.7689H1370.32ZM1398.35 67.702C1404.93 75.6657 1412.38 83.6857 1420.62 91.6801C1427.29 98.1318 1434.59 104.676 1442.46 111.261H1495.27C1487.13 104.984 1479.58 98.7519 1472.65 92.5976C1463.3 84.2955 1454.89 75.9676 1447.51 67.702H1398.35ZM1444.12 112.635C1454.4 121.152 1465.66 129.746 1477.79 138.345C1486.09 144.218 1494.91 150.173 1504.22 156.189H1562.24C1552.74 150.536 1543.72 144.936 1535.2 139.405C1521.41 130.453 1508.66 121.5 1497.06 112.635H1444.12ZM1506.36 157.567C1523.7 168.698 1542.72 180.034 1563.2 191.452C1568.93 194.644 1574.83 197.868 1580.88 201.122H1645.47C1639.69 198.262 1634.04 195.423 1628.53 192.61C1605.42 180.797 1584.01 169.072 1564.56 157.567H1506.36ZM1418.98 22.7689C1423.05 31.5934 1428.73 41.4945 1436.66 52.082C1440.2 56.7964 1444.09 61.5473 1448.34 66.3229H1497.34C1493.02 61.8032 1489.05 57.2984 1485.41 52.8301C1476.59 41.9605 1470.32 31.7989 1465.86 22.7689H1418.98ZM1449.56 67.702C1456.73 75.6549 1464.85 83.6704 1473.85 91.6544C1481.13 98.1219 1489.1 104.666 1497.7 111.261H1550.39C1541.6 104.994 1533.42 98.7677 1525.92 92.6179C1515.78 84.3108 1506.66 75.9731 1498.66 67.702H1449.56ZM1499.5 112.635C1510.72 121.146 1522.98 129.731 1536.22 138.324C1545.27 144.202 1554.91 150.168 1565.08 156.189H1622.94C1612.66 150.541 1602.9 144.945 1593.68 139.426C1578.73 130.463 1564.91 121.506 1552.34 112.635H1499.5ZM1567.41 157.567C1586.32 168.693 1607.06 180.029 1629.4 191.437C1635.66 194.634 1642.1 197.863 1648.71 201.122H1713.11C1706.85 198.268 1700.74 195.434 1694.78 192.62C1669.73 180.803 1646.53 169.072 1625.45 157.567H1567.41ZM1467.65 22.7689C1472.04 31.5884 1478.2 41.4841 1486.78 52.0612C1490.61 56.7815 1494.84 61.5419 1499.45 66.3229H1548.39C1543.76 61.8082 1539.48 57.3142 1535.57 52.8508C1526.06 41.9708 1519.3 31.8039 1514.5 22.7689H1467.65ZM1500.78 67.702C1508.54 75.6499 1517.34 83.6551 1527.07 91.6336C1534.97 98.1061 1543.61 104.661 1552.94 111.261H1605.52C1596.05 104.999 1587.26 98.7776 1579.18 92.6332C1568.26 84.3212 1558.44 75.9829 1549.81 67.702H1500.78ZM1554.89 112.635C1567.03 121.141 1580.32 129.72 1594.64 138.309C1604.46 144.192 1614.91 150.162 1625.94 156.189H1683.64C1672.58 150.547 1662.07 144.956 1652.16 139.437C1636.05 130.473 1621.16 121.511 1607.61 112.635H1554.89ZM1516.31 22.7689C1521.04 31.5835 1527.66 41.4688 1536.9 52.041C1541.04 56.7657 1545.6 61.5369 1550.57 66.3229H1599.44C1594.48 61.8136 1589.91 57.3246 1585.73 52.8661C1575.53 41.9862 1568.29 31.8138 1563.14 22.7689H1516.31ZM1552 67.702C1560.36 75.645 1569.82 83.6442 1580.29 91.6188C1588.81 98.0962 1598.12 104.651 1608.18 111.261H1660.65C1650.51 105.004 1641.1 98.788 1632.45 92.6485C1620.74 84.3311 1610.21 75.9829 1600.97 67.702H1552ZM1564.97 22.7689C1570.05 31.5781 1577.13 41.4585 1587.02 52.0202C1591.46 56.7558 1596.36 61.5265 1601.69 66.3229H1650.49C1645.21 61.8191 1640.33 57.3349 1635.88 52.8864C1624.96 41.9506 1617.27 31.6957 1611.86 22.7689H1564.97ZM1603.22 67.702C1612.17 75.64 1622.3 83.6344 1633.52 91.603C1642.64 98.0809 1652.63 104.646 1663.43 111.261H1715.77C1704.97 105.009 1694.94 98.7983 1685.71 92.6639C1673.22 84.3414 1661.98 75.9884 1652.12 67.702H1603.22ZM1613.7 22.7689C1619.04 31.4605 1626.56 41.4071 1637.15 52.0054C1641.89 56.745 1647.12 61.5211 1652.8 66.3229H1701.54C1695.94 61.824 1690.76 57.3448 1686.04 52.9017C1674.42 41.9605 1666.25 31.6957 1660.5 22.7689H1613.7Z" fill="url(#paint0_linear_32_274)" fill-opacity="0.35"/>
<defs>
<linearGradient id="paint0_linear_32_274" x1="892.922" y1="1681.57" x2="892.922" y2="-1287.48" gradientUnits="userSpaceOnUse">
<stop offset="0.264423" stop-color="white"/>
<stop offset="0.504808" stop-color="#FFCC00"/>
<stop offset="0.788462" stop-color="white"/>
</linearGradient>
</defs>
</svg>
