<svg id="Capa_1" enable-background="new 0 0 512 512" height="512" viewBox="0 0 512 512" width="512" xmlns="http://www.w3.org/2000/svg"><g><g><path d="m51.715 154.123c7.253-25.756 28.427-42.329 47.294-37.016s28.283 30.499 21.031 56.255c-5.351 19.003-31.167 39.406-44.337 48.799-4.033 2.876-9.689 1.283-11.629-3.274-6.334-14.885-17.71-45.761-12.359-64.764z" fill="#bbec6c"/></g><g><path d="m233.927 37.622c13.084 23.341 9.83 50.032-7.268 59.616s-41.565-1.567-54.649-24.908c-9.653-17.221-5.826-49.903-3.155-65.857.818-4.885 5.944-7.759 10.538-5.907 15.003 6.047 44.88 19.835 54.534 37.056z" fill="#bbec6c"/></g><g><path d="m88.319 160.869c-.707 0-1.427-.097-2.142-.297-4.191-1.181-6.632-5.536-5.453-9.728l7.391-26.244c1.18-4.191 5.536-6.628 9.727-5.453 4.191 1.181 6.632 5.536 5.453 9.728l-7.391 26.244c-.978 3.477-4.142 5.75-7.585 5.75z" fill="#8bc727"/></g><g><path d="m217.02 98.43c-2.761 0-5.439-1.452-6.885-4.031l-9.647-17.208c-2.129-3.798-.776-8.604 3.023-10.733 3.798-2.129 8.605-.775 10.733 3.023l9.647 17.208c2.129 3.798.776 8.604-3.023 10.733-1.218.684-2.543 1.008-3.848 1.008z" fill="#8bc727"/></g><path d="m460.228 83.806h-324.93l-25.097-25.097c-3.078-3.078-8.071-3.079-11.151.001-3.079 3.079-3.079 8.072.001 11.151l13.945 13.945h-74.788c-8.359 0-15.136 6.777-15.136 15.137v13.878c0 8.36 6.777 15.137 15.136 15.137h422.019c8.359 0 15.136-6.777 15.136-15.137v-13.878c.001-8.36-6.776-15.137-15.135-15.137z" fill="#d77f4a"/><g><path d="m304.546 176.396c-4.355 0-7.885-3.53-7.885-7.885v-89.85c0-4.355 3.53-7.885 7.885-7.885s7.885 3.53 7.885 7.885v89.85c0 4.356-3.53 7.885-7.885 7.885z" fill="#ac5e2e"/></g><g><g><path d="m381.272 461.308-79.378-10.513-74.075 10.513c-13.625 0-24.67 11.045-24.67 24.67v1.351c0 13.625 11.045 24.67 24.67 24.67h153.453c13.625 0 24.67-11.045 24.67-24.67v-1.351c.001-13.625-11.045-24.67-24.67-24.67z" fill="#ffd15b"/></g><g><path d="m381.272 461.308-8.412-10.513-23.128 10.513c13.625 0 24.671 11.045 24.671 24.67v1.351c0 13.625-11.045 24.67-24.671 24.67h31.54c13.625 0 24.671-11.045 24.671-24.67v-1.351c0-13.625-11.046-24.67-24.671-24.67z" fill="#ffc344"/></g><g><path d="m417.213 410.616-116.241-10.513-109.094 10.513c-13.625 0-24.67 11.045-24.67 24.67v1.351c0 13.625 11.045 24.67 24.67 24.67h225.335c13.625 0 24.67-11.045 24.67-24.67v-1.351c0-13.624-11.045-24.67-24.67-24.67z" fill="#feb237"/></g><g><path d="m417.213 410.616-12.732-10.513-18.808 10.513c13.625 0 24.67 11.046 24.67 24.67v1.351c0 13.625-11.045 24.67-24.67 24.67h31.54c13.625 0 24.67-11.045 24.67-24.67v-1.351c0-13.624-11.045-24.67-24.67-24.67z" fill="#eca026"/></g><g><path d="m436.021 360.345-134.806-10.513-128.145 10.513c-13.519 0-24.478 10.959-24.478 24.478v1.315c0 13.519 10.959 24.478 24.478 24.478h262.95c13.519 0 24.478-10.959 24.478-24.478v-1.315c.001-13.519-10.959-24.478-24.477-24.478z" fill="#ffd15b"/></g><g><path d="m436.021 360.345-12.679-10.513-18.861 10.513c13.519 0 24.478 10.959 24.478 24.478v1.315c0 13.519-10.959 24.478-24.478 24.478h31.54c13.519 0 24.478-10.959 24.478-24.478v-1.315c0-13.519-10.959-24.478-24.478-24.478z" fill="#ffc344"/></g><g><path d="m381.272 208.69-82.686 10.513-70.767-10.513c-13.625 0-24.67-11.045-24.67-24.67v-1.351c0-13.625 11.045-24.67 24.67-24.67h153.453c13.625 0 24.67 11.045 24.67 24.67v1.351c.001 13.625-11.045 24.67-24.67 24.67z" fill="#ffd15b"/></g><g><path d="m381.272 157.998h-31.54c13.625 0 24.671 11.046 24.671 24.67v1.351c0 13.625-11.045 24.67-24.671 24.67l19.123 10.513 12.417-10.513c13.625 0 24.671-11.045 24.671-24.67v-1.351c0-13.624-11.046-24.67-24.671-24.67z" fill="#ffc344"/></g><g><path d="m417.213 259.382-102.154 10.513-123.181-10.513c-13.625 0-24.67-11.045-24.67-24.67v-1.351c0-13.625 11.045-24.67 24.67-24.67h225.335c13.625 0 24.67 11.045 24.67 24.67v1.351c0 13.625-11.045 24.67-24.67 24.67z" fill="#feb237"/></g><g><path d="m417.213 208.69h-31.54c13.625 0 24.67 11.045 24.67 24.67v1.351c0 13.625-11.045 24.67-24.67 24.67l18.808 10.513 12.732-10.513c13.625 0 24.67-11.045 24.67-24.67v-1.351c0-13.625-11.045-24.67-24.67-24.67z" fill="#eca026"/></g><g><path d="m436.021 309.653-133.204 10.513-129.747-10.513c-13.519 0-24.478-10.959-24.478-24.478v-1.315c0-13.519 10.959-24.478 24.478-24.478h262.95c13.519 0 24.478 10.959 24.478 24.478v1.315c.001 13.519-10.959 24.478-24.477 24.478z" fill="#ffd15b"/></g><g><path d="m436.021 259.382h-31.54c13.519 0 24.478 10.959 24.478 24.478v1.315c0 13.519-10.959 24.478-24.478 24.478l19.326 10.513 12.214-10.513c13.519 0 24.478-10.959 24.478-24.478v-1.315c0-13.519-10.959-24.478-24.478-24.478z" fill="#ffc344"/></g><g><path d="m465.462 360.345h-321.833c-12.96 0-23.466-10.506-23.466-23.466v-3.76c0-12.96 10.506-23.466 23.466-23.466h321.833c12.96 0 23.466 10.506 23.466 23.466v3.76c0 12.96-10.506 23.466-23.466 23.466z" fill="#feb237"/></g><g><path d="m464.257 309.653h-31.54c13.625 0 24.67 11.046 24.67 24.67v1.351c0 13.625-11.045 24.67-24.67 24.67h31.54c13.625 0 24.67-11.045 24.67-24.67v-1.351c.001-13.624-11.044-24.67-24.67-24.67z" fill="#eca026"/></g><g><path d="m304.492 410.616h-5.197c-18.034 0-32.653-14.619-32.653-32.653v-35.656c0-18.034 14.619-32.653 32.653-32.653h5.197c18.034 0 32.653 14.619 32.653 32.653v35.656c.001 18.034-14.619 32.653-32.653 32.653z" fill="#554e56"/></g></g></g></svg>