<svg enable-background="new 0 0 64 64" viewBox="0 0 64 64" xmlns="http://www.w3.org/2000/svg" xmlns:xlink="http://www.w3.org/1999/xlink"><linearGradient id="SVGID_1_" gradientUnits="userSpaceOnUse" x1="3.24" x2="48.76" y1="25.82" y2="25.82"><stop offset="0" stop-color="#fcb043"/><stop offset=".7438" stop-color="#df781b"/><stop offset=".8108" stop-color="#dc761a"/><stop offset=".8693" stop-color="#d16f18"/><stop offset=".9247" stop-color="#bf6215"/><stop offset=".9778" stop-color="#a65210"/><stop offset="1" stop-color="#99490d"/></linearGradient><linearGradient id="lg1"><stop offset="0" stop-color="#fef156"/><stop offset=".4469" stop-color="#ffc242"/><stop offset="1" stop-color="#fc753f"/></linearGradient><linearGradient id="SVGID_00000093897418100311517640000002858202324112294793_" gradientUnits="userSpaceOnUse" x1="3" x2="49" xlink:href="#lg1" y1="44.5" y2="44.5"/><linearGradient id="SVGID_00000134225108340453542140000003385852893050750886_" gradientUnits="userSpaceOnUse" x1="6" x2="46" y1="8" y2="8"><stop offset="0" stop-color="#df781b"/><stop offset=".4048" stop-color="#ce6810"/><stop offset=".6481" stop-color="#c15c08"/><stop offset="1" stop-color="#99490d"/></linearGradient><linearGradient id="SVGID_00000098921013630638124410000000868798260579404722_" gradientUnits="userSpaceOnUse" x1="25" x2="35" xlink:href="#lg1" y1="10.5" y2="10.5"/><linearGradient id="SVGID_00000023964851310169318930000013847621918199663272_" gradientUnits="userSpaceOnUse" x1="27" x2="63" xlink:href="#lg1" y1="43" y2="43"/><g id="Layer_1"/><g id="Squirrel"/><g id="Fox"/><g id="Boots"/><g id="Picnic_Basket"/><g id="Scarf"/><g id="Windy"/><g id="Barn"/><g id="Calendar"/><g id="Teapot"/><g id="Oil_Lamp"/><g id="Raincoat"/><g id="Mushroom"/><g id="Pine_Cone"/><g id="Bonfire"/><g id="Sweater"/><g id="Tree"/><g id="Trunk"/><g id="Acorn"/><g id="Honey"><g><path d="m48.76 32v.01c-.24.31-5.23 6.63-23.4 6.63s-21.94-6.32-22.12-6.63c0-.01 0-.01 0-.01.37-2.22 1.14-4.36 2.27-6.31l3.13-5.35c.89-1.53 1.36-3.27 1.36-5.04v-2.3h32v2.3c0 1.77.47 3.51 1.36 5.04l3.13 5.35c1.13 1.95 1.9 4.09 2.27 6.31z" fill="url(#SVGID_1_)"/><path d="m49 34.99v4.88c0 6.31-3.22 12.18-8.54 15.57-1.61 1.02-3.47 1.56-5.37 1.56h-18.18c-1.9 0-3.76-.54-5.37-1.56-2.66-1.7-4.8-4.01-6.26-6.69-1.48-2.68-2.28-5.73-2.28-8.88v-4.88c0-1.01.08-2.01.24-2.99h45.52c.16.98.24 1.98.24 2.99z" fill="url(#SVGID_00000093897418100311517640000002858202324112294793_)"/><path d="m46 6v4c0 1.66-1.34 3-3 3h-34c-1.66 0-3-1.34-3-3v-4c0-1.66 1.34-3 3-3h16s2.26 1.74 5 1.74 5-1.74 5-1.74h8c1.66 0 3 1.34 3 3z" fill="url(#SVGID_00000134225108340453542140000003385852893050750886_)"/><path d="m25 3v10c0 2.761 2.239 5 5 5 2.761 0 5-2.239 5-5v-10z" fill="url(#SVGID_00000098921013630638124410000000868798260579404722_)"/><path d="m53 41v-10l-8-4-8 4v10l-8 4v10l8 4 8-4 8 4 8-4v-10z" fill="#fef156"/><path d="m61.895 43.211-6.895-3.447v-8.764c0-.757-.428-1.45-1.105-1.789l-8-4c-.563-.281-1.226-.281-1.789 0l-8 4c-.678.339-1.106 1.032-1.106 1.789v8.764l-6.895 3.447c-.677.339-1.105 1.032-1.105 1.789v10c0 .757.428 1.45 1.105 1.789l8 4c.282.141.588.211.895.211s.613-.07.895-.211l7.105-3.553 7.105 3.553c.282.141.588.211.895.211s.613-.07.895-.211l8-4c.677-.339 1.105-1.032 1.105-1.789v-10c0-.757-.428-1.45-1.105-1.789zm-16.895-13.975 6 3v7.528l-6 3-6-3v-7.528zm-8 27.528-6-3v-7.528l6-3 6 3v7.528zm22-3-6 3-6-3v-7.528l6-3 6 3z" fill="url(#SVGID_00000023964851310169318930000013847621918199663272_)"/></g></g><g id="Pumpkin"/><g id="Layer_22" display="none"/></svg>