<svg width="210" height="40" viewBox="0 0 210 40" fill="none" xmlns="http://www.w3.org/2000/svg">
<path fill-rule="evenodd" clip-rule="evenodd" d="M22.2111 0.368201L28.8413 4.15506C29.6931 4.75046 30.2845 5.6029 30.3695 6.95678V14.4552C30.2765 15.9396 29.5418 16.5588 28.3658 17.2307L22.1009 20.8098C21.1784 21.2548 20.2884 21.2392 19.4197 20.8887L12.4748 16.9215C11.3787 16.2606 10.936 15.2939 11.0114 14.0845V7.5686C11.0114 5.87879 10.9776 5.04732 12.6586 4.08757L19.0504 0.436746C20.0388 -0.0723834 21.0793 -0.18803 22.2111 0.368201Z" fill="#FFCC00"/>
<path fill-rule="evenodd" clip-rule="evenodd" d="M11.2079 19.2202L17.8381 23.007C18.6899 23.6024 19.2812 24.4549 19.3664 25.8087V33.3071C19.2732 34.7916 18.5386 35.4107 17.3625 36.0827L11.0976 39.6617C10.1752 40.1068 9.28515 40.0911 8.41652 39.7407L1.47156 35.7735C0.375528 35.1126 -0.0671716 34.146 0.0081659 32.9365V26.4206C0.0081659 24.7307 -0.0256166 23.8993 1.65529 22.9395L8.0472 19.2888C9.03558 18.7796 10.0761 18.6639 11.2079 19.2202Z" fill="black"/>
<path fill-rule="evenodd" clip-rule="evenodd" d="M33.2081 19.2202L39.8383 23.007C40.6901 23.6024 41.2814 24.4549 41.3666 25.8087V33.3071C41.2734 34.7916 40.5388 35.4107 39.3627 36.0827L33.0978 39.6617C32.1753 40.1068 31.2854 40.0911 30.4167 39.7407L23.4718 35.7735C22.3757 35.1126 21.933 34.146 22.0084 32.9365V26.4206C22.0084 24.7307 21.9746 23.8993 23.6555 22.9395L30.0473 19.2888C31.0359 18.7796 32.0763 18.6639 33.2081 19.2202Z" fill="black"/>
<path d="M52.1372 34.6729H48.6877V4.8734H52.3896V15.5072C53.953 13.5788 55.9442 12.6146 58.37 12.6146C59.7092 12.6146 60.9852 12.8782 62.1841 13.4123C63.3831 13.9464 64.3646 14.7025 65.1428 15.6667C65.914 16.6378 66.524 17.8032 66.9587 19.1697C67.4004 20.5292 67.6178 21.9928 67.6178 23.5467C67.6178 27.2369 66.6923 30.0948 64.8484 32.1064C62.9974 34.1249 60.7819 35.1307 58.1948 35.1307C55.6217 35.1307 53.6025 34.0694 52.1372 31.9537V34.6729ZM52.0951 23.7131C52.0951 26.2935 52.4527 28.1594 53.1608 29.3109C54.3246 31.1907 55.8951 32.1341 57.8793 32.1341C59.4989 32.1341 60.8941 31.4405 62.0649 30.0531C63.2428 28.6658 63.8317 26.5987 63.8317 23.8519C63.8317 21.0356 63.2708 18.9616 62.1421 17.6228C61.0132 16.284 59.6461 15.6112 58.0475 15.6112C56.428 15.6112 55.0328 16.3048 53.8619 17.6921C52.6841 19.0795 52.0951 21.0841 52.0951 23.7131ZM85.1476 27.6808L88.9757 28.1803C88.3797 30.3792 87.2649 32.0925 85.6383 33.3064C84.0118 34.5203 81.9365 35.1307 79.4054 35.1307C76.2224 35.1307 73.6984 34.1596 71.8335 32.2173C69.9684 30.282 69.036 27.556 69.036 24.053C69.036 20.4321 69.9755 17.6159 71.8614 15.6181C73.7475 13.6134 76.1944 12.6146 79.2022 12.6146C82.1118 12.6146 84.4885 13.5926 86.3325 15.5557C88.1764 17.5188 89.1019 20.2795 89.1019 23.8379C89.1019 24.053 89.0948 24.379 89.0809 24.8091H72.822C72.9622 27.1744 73.6353 28.9919 74.8552 30.2473C76.0682 31.5029 77.5896 32.1341 79.4054 32.1341C80.7586 32.1341 81.9155 31.7804 82.869 31.0728C83.8295 30.3652 84.5867 29.2347 85.1476 27.6808ZM73.0323 21.8125H85.1896C85.0284 19.9951 84.5586 18.6355 83.7944 17.7268C82.6236 16.3187 81.0952 15.6112 79.2232 15.6112C77.5265 15.6112 76.1032 16.1731 74.9464 17.2968C73.7966 18.4205 73.1585 19.9257 73.0323 21.8125ZM106.674 27.6808L110.502 28.1803C109.906 30.3792 108.791 32.0925 107.164 33.3064C105.538 34.5203 103.463 35.1307 100.932 35.1307C97.7486 35.1307 95.2246 34.1596 93.3596 32.2173C91.4946 30.282 90.5622 27.556 90.5622 24.053C90.5622 20.4321 91.5016 17.6159 93.3876 15.6181C95.2737 13.6134 97.7205 12.6146 100.728 12.6146C103.638 12.6146 106.015 13.5926 107.859 15.5557C109.703 17.5188 110.628 20.2795 110.628 23.8379C110.628 24.053 110.621 24.379 110.607 24.8091H94.3482C94.4884 27.1744 95.1614 28.9919 96.3814 30.2473C97.5943 31.5029 99.1157 32.1341 100.932 32.1341C102.285 32.1341 103.442 31.7804 104.395 31.0728C105.356 30.3652 106.113 29.2347 106.674 27.6808ZM94.5585 21.8125H106.716C106.555 19.9951 106.085 18.6355 105.321 17.7268C104.15 16.3187 102.621 15.6112 100.749 15.6112C99.0527 15.6112 97.6294 16.1731 96.4725 17.2968C95.3228 18.4205 94.6847 19.9257 94.5585 21.8125ZM111.836 28.2219L115.496 27.6392C115.699 29.089 116.274 30.1988 117.214 30.9757C118.153 31.7457 119.471 32.1341 121.154 32.1341C122.857 32.1341 124.119 31.7942 124.947 31.1075C125.767 30.4277 126.181 29.623 126.181 28.7005C126.181 27.875 125.809 27.223 125.073 26.7513C124.554 26.4253 123.292 26.0161 121.287 25.5097C118.581 24.8368 116.709 24.2542 115.657 23.7617C114.612 23.2622 113.82 22.5825 113.28 21.7084C112.74 20.8413 112.467 19.8771 112.467 18.8228C112.467 17.8587 112.691 16.9708 113.133 16.1523C113.582 15.3337 114.185 14.6539 114.949 14.1129C115.524 13.6967 116.309 13.3429 117.298 13.0516C118.293 12.7603 119.352 12.6146 120.488 12.6146C122.198 12.6146 123.699 12.8574 124.989 13.3498C126.286 13.8354 127.239 14.5013 127.856 15.3337C128.466 16.1731 128.894 17.2898 129.125 18.691L125.508 19.1905C125.346 18.0667 124.87 17.1858 124.084 16.5546C123.299 15.9233 122.191 15.6112 120.754 15.6112C119.064 15.6112 117.851 15.8887 117.129 16.4435C116.407 16.9985 116.043 17.6505 116.043 18.3927C116.043 18.8645 116.19 19.2945 116.491 19.676C116.793 20.0645 117.263 20.3905 117.908 20.6471C118.279 20.7859 119.359 21.0981 121.168 21.5835C123.776 22.2703 125.599 22.8391 126.636 23.2761C127.674 23.7131 128.487 24.3582 129.076 25.1906C129.672 26.0299 129.967 27.0704 129.967 28.319C129.967 29.5329 129.609 30.6774 128.887 31.7526C128.165 32.8278 127.127 33.6601 125.774 34.2498C124.414 34.8394 122.878 35.1307 121.168 35.1307C118.335 35.1307 116.169 34.548 114.682 33.3896C113.196 32.2243 112.25 30.504 111.836 28.2219Z" fill="black"/>
<path d="M160.686 12.7174C159.285 12.7174 158.35 13.3897 157.925 14.7765L154.867 28.14L151.809 12.7174H145.82L142.592 28.14L139.024 12.7174H133.29L139.449 34.9478H145.353L148.921 19.0209L152.319 34.9478H158.18L164.424 12.7174H160.686ZM186.044 28.14H181.881C181.117 28.14 180.48 28.3922 179.97 28.9384C178.866 29.989 177.634 30.5354 176.317 30.5354C173.556 30.5354 172.07 28.8124 171.857 25.4085H186.384C186.809 16.7096 183.453 12.3812 176.317 12.3812C169.479 12.4232 166.038 16.2053 166.038 23.7695C166.038 31.3338 169.436 35.242 176.232 35.4521C181.754 35.4521 184.812 32.8466 186.044 28.14ZM176.232 16.9617C178.653 16.9617 180.055 18.4745 180.395 21.4163H171.942C172.367 18.4745 173.811 16.9617 176.232 16.9617ZM194.666 9.18737C194.666 7.33836 193.732 6.37182 191.863 6.37182H189.017V25.3244C189.017 32.0062 192.543 35.326 199.551 35.284C206.517 35.1579 210 31.4178 210 24.0217C210 16.4575 207.027 12.5913 201.038 12.3812C198.234 12.3812 196.111 13.5158 194.666 15.8271V9.18737ZM199.466 17.382C202.524 17.382 204.096 19.4832 204.223 23.7695C204.223 28.2661 202.609 30.5354 199.381 30.5354C196.153 30.5354 194.624 28.2661 194.666 23.7695C194.836 19.4832 196.408 17.382 199.466 17.382Z" fill="black"/>
</svg>
