<svg xmlns="http://www.w3.org/2000/svg" width="116" height="20" viewBox="0 0 116 20" fill="none"><path d="M9.10329 1.81663C9.47013 1.07346 10.5299 1.07346 10.8967 1.81663L12.8576 5.78909C13.0031 6.08394 13.2843 6.2884 13.6096 6.33595L17.9962 6.97712C18.8161 7.09696 19.1429 8.1048 18.5493 8.68296L15.3768 11.773C15.1409 12.0027 15.0333 12.3339 15.0889 12.6584L15.8374 17.0226C15.9775 17.8396 15.12 18.4626 14.3864 18.0767L10.4655 16.0148C10.1741 15.8615 9.82593 15.8615 9.53455 16.0148L5.61363 18.0767C4.88 18.4626 4.02245 17.8396 4.16257 17.0226L4.91109 12.6584C4.96675 12.3339 4.85908 12.0027 4.62321 11.773L1.45068 8.68296C0.857085 8.1048 1.18387 7.09696 2.00378 6.97712L6.39037 6.33595C6.71572 6.2884 6.99691 6.08394 7.14245 5.78909L9.10329 1.81663Z" fill="#FEB600"></path><path d="M33.1033 1.81663C33.4701 1.07346 34.5299 1.07346 34.8967 1.81663L36.8576 5.78909C37.0031 6.08394 37.2843 6.2884 37.6096 6.33595L41.9962 6.97712C42.8161 7.09696 43.1429 8.1048 42.5493 8.68296L39.3768 11.773C39.1409 12.0027 39.0333 12.3339 39.0889 12.6584L39.8374 17.0226C39.9775 17.8396 39.12 18.4626 38.3864 18.0767L34.4655 16.0148C34.1741 15.8615 33.8259 15.8615 33.5345 16.0148L29.6136 18.0767C28.88 18.4626 28.0225 17.8396 28.1626 17.0226L28.9111 12.6584C28.9667 12.3339 28.8591 12.0027 28.6232 11.773L25.4507 8.68296C24.8571 8.1048 25.1839 7.09696 26.0038 6.97712L30.3904 6.33595C30.7157 6.2884 30.9969 6.08394 31.1424 5.78909L33.1033 1.81663Z" fill="#FEB600"></path><path d="M57.1033 1.81663C57.4701 1.07346 58.5299 1.07346 58.8967 1.81663L60.8576 5.78909C61.0031 6.08394 61.2843 6.2884 61.6096 6.33595L65.9962 6.97712C66.8161 7.09696 67.1429 8.1048 66.5493 8.68296L63.3768 11.773C63.1409 12.0027 63.0333 12.3339 63.0889 12.6584L63.8374 17.0226C63.9775 17.8396 63.12 18.4626 62.3864 18.0767L58.4655 16.0148C58.1741 15.8615 57.8259 15.8615 57.5345 16.0148L53.6136 18.0767C52.88 18.4626 52.0225 17.8396 52.1626 17.0226L52.9111 12.6584C52.9667 12.3339 52.8591 12.0027 52.6232 11.773L49.4507 8.68296C48.8571 8.1048 49.1839 7.09696 50.0038 6.97712L54.3904 6.33595C54.7157 6.2884 54.9969 6.08394 55.1424 5.78909L57.1033 1.81663Z" fill="#FEB600"></path><path d="M81.1033 1.81663C81.4701 1.07346 82.5299 1.07346 82.8967 1.81663L84.8576 5.78909C85.0031 6.08394 85.2843 6.2884 85.6096 6.33595L89.9962 6.97712C90.8161 7.09696 91.1429 8.1048 90.5493 8.68296L87.3768 11.773C87.1409 12.0027 87.0333 12.3339 87.0889 12.6584L87.8374 17.0226C87.9775 17.8396 87.12 18.4626 86.3864 18.0767L82.4655 16.0148C82.1741 15.8615 81.8259 15.8615 81.5345 16.0148L77.6136 18.0767C76.88 18.4626 76.0225 17.8396 76.1626 17.0226L76.9111 12.6584C76.9667 12.3339 76.8591 12.0027 76.6232 11.773L73.4507 8.68296C72.8571 8.1048 73.1839 7.09696 74.0038 6.97712L78.3904 6.33595C78.7157 6.2884 78.9969 6.08394 79.1424 5.78909L81.1033 1.81663Z" fill="#FEB600"></path><path d="M105.103 1.81663C105.47 1.07346 106.53 1.07346 106.897 1.81663L108.858 5.78909C109.003 6.08394 109.284 6.2884 109.61 6.33595L113.996 6.97712C114.816 7.09696 115.143 8.1048 114.549 8.68296L111.377 11.773C111.141 12.0027 111.033 12.3339 111.089 12.6584L111.837 17.0226C111.978 17.8396 111.12 18.4626 110.386 18.0767L106.465 16.0148C106.174 15.8615 105.826 15.8615 105.535 16.0148L101.614 18.0767C100.88 18.4626 100.022 17.8396 100.163 17.0226L100.911 12.6584C100.967 12.3339 100.859 12.0027 100.623 11.773L97.4507 8.68296C96.8571 8.1048 97.1839 7.09696 98.0038 6.97712L102.39 6.33595C102.716 6.2884 102.997 6.08394 103.142 5.78909L105.103 1.81663Z" fill="#FEB600"></path></svg>